<?xml version="1.0" encoding="UTF-8"?>
<svg version="1.1" xmlns="http://www.w3.org/2000/svg" width="593" height="513">
<path d="M0 0 C195.69 0 391.38 0 593 0 C593 169.29 593 338.58 593 513 C397.31 513 201.62 513 0 513 C0 343.71 0 174.42 0 0 Z " fill="#FDFEFE" transform="translate(0,0)"/>
<path d="M0 0 C39.27 0 78.54 0 119 0 C121.64 5.28 124.28 10.56 127 16 C129.14116863 20.27084338 129.14116863 20.27084338 131.28340149 24.54115295 C133.27498448 28.51040957 135.2640321 32.48093555 137.25317383 36.45141602 C138.28662595 38.51330428 139.32079713 40.57483231 140.35571289 42.63598633 C146.92299139 55.71733741 153.3668287 68.84778246 159.64379883 82.07104492 C161.98441139 86.99169587 164.41613314 91.86097174 166.87226868 96.72491455 C169.55083709 102.03627772 172.11541498 107.40013502 174.68041992 112.76708984 C178.99786348 121.80007002 183.33158858 130.8002527 188.0625 139.625 C192.32425597 147.58016333 196.24282695 155.67338478 200.11523438 163.82421875 C204.32000627 172.64839238 208.6727724 181.39199968 213.0625 190.125 C220.36680638 204.66649419 227.49910171 219.28232118 234.34375 234.046875 C234.70984375 234.83392822 235.0759375 235.62098145 235.453125 236.43188477 C236.12437482 237.8781714 236.79142818 239.32641747 237.453125 240.77709961 C238.64784628 243.35550986 239.81000661 245.74942198 241.53125 248.01953125 C243.17816305 250.24023581 244.17315083 252.5540682 245.21826172 255.10351562 C249.58076778 265.68688449 254.88115938 275.9043024 260.32250977 285.96386719 C262.5552937 290.12314585 264.62511858 294.31721292 266.57421875 298.6171875 C271.79982189 310.06025985 277.59114913 321.23620605 283.24584961 332.47119141 C289.38165981 344.66931746 295.44815675 356.89084117 301.27580261 369.23983765 C304.03850537 375.07563445 306.94946977 380.80962183 310 386.5 C314.12009672 394.22000347 317.94188936 402.05112366 321.68359375 409.9609375 C325.19106696 417.35798296 328.82006536 424.687379 332.5 432 C336.83784744 440.63488181 341.12336592 449.29187877 345.3125 458 C345.786875 458.9796875 346.26125 459.959375 346.75 460.96875 C347.17925781 461.8659375 347.60851562 462.763125 348.05078125 463.6875 C348.42887939 464.47511719 348.80697754 465.26273437 349.1965332 466.07421875 C350 468 350 468 350 470 C310.73 470 271.46 470 231 470 C226.99557157 461.99114313 222.99114978 453.98229095 218.98828125 445.97265625 C216.68874854 441.37213216 214.38531301 436.77360353 212.0761261 432.17791748 C205.18440468 418.46186104 198.32452477 404.73874226 191.75537109 390.86425781 C188.49438885 383.98650425 185.11687904 377.17353683 181.63891602 370.40283203 C179 365.21278099 179 365.21278099 179 363 C126.86 363 74.72 363 21 363 C30.25675219 342.17230756 30.25675219 342.17230756 34.5 333.8125 C35.19754395 332.42490479 35.19754395 332.42490479 35.90917969 331.00927734 C38.60655021 325.66744413 41.38877803 320.38046425 44.25 315.125 C47.24173838 309.62968045 49.77721781 304.02420806 52.21362305 298.26904297 C55.24218791 291.22765094 58.84523312 284.51260249 62.47265625 277.765625 C65.41021565 272.22648672 68.19602753 266.60794494 71 261 C89.48 261 107.96 261 127 261 C124.57985618 254.94964044 122.52964024 249.84896709 119.4375 244.3125 C116.03295805 238.1228524 112.9567044 231.80470911 109.94140625 225.41796875 C104.29092802 213.52850061 98.42035174 201.75684015 92.5 190 C86.21104334 177.5111714 80.00578662 164.99353998 73.99951172 152.36599731 C69.9753962 143.91584343 65.83948658 135.52517663 61.64453125 127.15869141 C60.46829495 124.81173869 59.29652308 122.46258966 58.125 120.11328125 C57.36484072 118.59362123 56.60443426 117.07408481 55.84375 115.5546875 C55.50001343 114.86519012 55.15627686 114.17569275 54.80212402 113.46530151 C53.39930865 110.6732916 51.96423341 107.94078026 50.34838867 105.26538086 C49.14265596 103.23967131 48.32764909 101.42316113 47.58203125 99.19921875 C46.00580876 94.83327603 43.91097901 90.87838018 41.6875 86.8125 C37.36214732 78.74867993 33.3236041 70.56643223 29.375 62.3125 C23.55614321 50.15380071 17.57976578 38.08114826 11.50537109 26.0480957 C0 3.21773233 0 3.21773233 0 0 Z " fill="#022AC7" transform="translate(222,18)"/>
<path d="M0 0 C1.10675619 2.1862225 2.21044378 4.37390948 3.3125 6.5625 C3.62123047 7.17158203 3.92996094 7.78066406 4.24804688 8.40820312 C4.55419922 9.01728516 4.86035156 9.62636719 5.17578125 10.25390625 C5.59210815 11.07870483 5.59210815 11.07870483 6.0168457 11.92016602 C6.81585297 13.61044238 7.55516259 15.3288421 8.27587891 17.05395508 C10.42753276 22.10688119 12.93863997 26.98079971 15.41015625 31.8828125 C16.20056557 33.4579512 16.20056557 33.4579512 17.00694275 35.06491089 C19.24464679 39.52414573 21.48698234 43.98104589 23.72924805 48.43798828 C29.87709571 60.66461689 35.98455683 72.90085446 41.80067444 85.2895813 C44.26494568 90.52719252 46.85735503 95.62979291 49.74609375 100.6484375 C51.04389926 103.08232821 52.11335239 105.57555061 53.1809082 108.1171875 C54.61487311 111.41338344 56.25300999 114.60581605 57.875 117.8125 C58.22361084 118.51101074 58.57222168 119.20952148 58.93139648 119.92919922 C60.46578022 122.99796669 62.02180452 126.03988133 63.66796875 129.05078125 C64.35826172 130.32501953 64.35826172 130.32501953 65.0625 131.625 C65.46597656 132.33914062 65.86945313 133.05328125 66.28515625 133.7890625 C67.88612888 138.74070462 65.73465734 142.97430679 63.47460938 147.40234375 C63.13236328 148.05332031 62.79011719 148.70429688 62.4375 149.375 C61.70681705 150.7993693 60.97635442 152.22385165 60.24609375 153.6484375 C59.87210449 154.3712793 59.49811523 155.09412109 59.11279297 155.83886719 C57.37687484 159.21015883 55.68976263 162.60540998 54 166 C53.32708337 167.34648436 52.65390621 168.69283855 51.98046875 170.0390625 C51.48426025 171.03147949 51.48426025 171.03147949 50.97802734 172.04394531 C48.17578125 177.6484375 48.17578125 177.6484375 47.25463867 179.49047852 C46.61782315 180.76427458 45.98127415 182.03820392 45.3449707 183.31225586 C43.23375031 187.53821786 41.11514072 191.76038738 38.9921875 195.98046875 C33.36461652 207.18157252 27.81861506 218.41027618 22.45263672 229.73901367 C17.52059331 240.09877881 12.35646879 250.34239941 7.18847656 260.5859375 C3.62989208 267.65312137 0.15313487 274.74668029 -3.19140625 281.91796875 C-6.03966285 288.02452049 -9.02930319 294.01710145 -12.25 299.9375 C-15.95374264 306.8154738 -15.95374264 306.8154738 -19 314 C-20.75360151 318.71936995 -23.07113157 323.06666436 -25.4375 327.5 C-34.48300633 344.45203704 -42.9525978 361.68903067 -51.16967773 379.0559082 C-54.35088025 385.74403161 -57.73890616 392.27723203 -61.34375 398.74609375 C-63.18531986 402.36408359 -64.57454131 406.19877684 -66 410 C-89.1 410 -112.2 410 -136 410 C-135.23292605 406.16463027 -134.68720148 404.00820169 -132.99609375 400.69921875 C-132.58939453 399.89548828 -132.18269531 399.09175781 -131.76367188 398.26367188 C-131.32603516 397.41353516 -130.88839844 396.56339844 -130.4375 395.6875 C-129.51946828 393.87893821 -128.60150024 392.0703441 -127.68359375 390.26171875 C-127.22710449 389.36759277 -126.77061523 388.4734668 -126.30029297 387.55224609 C-124.51336178 384.04481488 -122.75549846 380.52323509 -121 377 C-120.35436387 375.70823475 -119.7085268 374.41656992 -119.0625 373.125 C-118.7325 372.465 -118.4025 371.805 -118.0625 371.125 C-115.27083333 365.54166667 -112.47916667 359.95833333 -109.6875 354.375 C-109.27129395 353.54186279 -108.85508789 352.70872559 -108.42626953 351.8503418 C-107.3826567 349.76472389 -106.33638413 347.68043629 -105.28857422 345.59692383 C-101.39332545 337.84338925 -97.55515414 330.06368865 -93.7578125 322.26171875 C-93.29985291 321.32127716 -92.84189331 320.38083557 -92.37005615 319.41189575 C-90.4830146 315.53564536 -88.59650238 311.65914742 -86.71435547 307.78051758 C-81.41141573 296.85690378 -75.99768774 286.02428782 -70.27613831 275.31359863 C-67.87714033 270.78478154 -65.79397605 266.27876099 -64.00830078 261.47021484 C-61.87764052 256.25035515 -59.11497186 251.30083807 -56.49072266 246.31521606 C-50.85213997 235.5933805 -45.38761501 224.81466039 -40.22436523 213.85473633 C-36.27707859 205.50467877 -32.14799653 197.25150244 -28 189 C-22.85239523 178.75659234 -17.79390976 168.48103756 -12.88208008 158.12182617 C-8.4413451 148.7749921 -3.80673161 139.5279996 0.84863281 130.28662109 C2.75317597 126.50418869 4.64346319 122.71465054 6.53515625 118.92578125 C7.6848508 116.629458 8.83916 114.335643 9.99609375 112.04296875 C10.34841064 111.34284668 10.70072754 110.64272461 11.0637207 109.92138672 C11.74415025 108.56929321 12.42613946 107.2179828 13.11010742 105.86767578 C15.56649093 100.97989105 17.81351353 96.01388949 20 91 C16.89385378 87.71997379 13.76475727 84.46429457 10.61279297 81.22827148 C9.5454039 80.12581984 8.48439805 79.0171487 7.43017578 77.90209961 C5.90759803 76.29397571 4.36294982 74.71011922 2.8125 73.12890625 C2.35069336 72.63097061 1.88888672 72.13303497 1.41308594 71.62001038 C-2.56470477 67.63764639 -5.60496826 67.26620222 -11 67 C-11.23251465 67.78648926 -11.4650293 68.57297852 -11.70458984 69.38330078 C-13.37883347 74.05767793 -15.53073942 78.41864548 -17.7265625 82.8671875 C-18.1930722 83.81957306 -18.65958191 84.77195862 -19.14022827 85.75320435 C-20.63162657 88.79554754 -22.12829865 91.83526279 -23.625 94.875 C-24.60840538 96.88004531 -25.59148142 98.88525218 -26.57421875 100.890625 C-30.82894009 109.56484848 -35.10308371 118.22858456 -39.4375 126.86328125 C-42.17039977 132.30772072 -44.81529518 137.78466076 -47.375 143.3125 C-50.87859418 150.80390603 -54.62343322 158.14094466 -58.55029297 165.41918945 C-60.43276404 168.92686829 -62.22207745 172.42864648 -63.79931641 176.08496094 C-66.18023407 181.48311678 -68.81672401 186.74077251 -71.47265625 192.0078125 C-72.25738564 193.57159134 -72.25738564 193.57159134 -73.05796814 195.16696167 C-75.27180547 199.5785191 -77.49030017 203.98772844 -79.70874023 208.39697266 C-86.5078834 221.91800754 -93.20113882 235.47843275 -99.68847656 249.15209961 C-102.696391 255.4836997 -105.83825356 261.74385794 -109 268 C-110.19900378 270.39529794 -111.39699786 272.79107835 -112.59375 275.1875 C-115.2403823 280.48453445 -117.89170227 285.77918145 -120.5483551 291.07119751 C-130.66687825 311.22833844 -140.7276184 331.39604029 -150.2578125 351.83984375 C-150.61713867 352.6088501 -150.97646484 353.37785645 -151.34667969 354.17016602 C-151.99410917 355.55832737 -152.63843844 356.94794301 -153.27832031 358.33959961 C-154.86755125 361.75751631 -156.57198569 365.06493076 -158.42578125 368.34765625 C-161.12598087 373.1466474 -163.48117421 378.07618254 -165.8125 383.0625 C-170.07919849 392.11089893 -174.49275952 401.06898645 -179 410 C-184.61 410 -190.22 410 -196 410 C-194.8228158 407.05703949 -193.6741404 404.21106299 -192.3359375 401.35546875 C-192.02269531 400.68700928 -191.70945313 400.0185498 -191.38671875 399.32983398 C-191.05285156 398.62286377 -190.71898437 397.91589355 -190.375 397.1875 C-190.02308594 396.44121338 -189.67117187 395.69492676 -189.30859375 394.92602539 C-186.32660997 388.63242129 -183.24121 382.39443352 -180.10498047 376.17651367 C-173.46400472 363.0016407 -166.94381299 349.77244687 -160.5 336.5 C-155.60868604 326.42526556 -150.71606746 316.35328983 -145.6685791 306.35559082 C-142.62309947 300.30749115 -139.78920245 294.1700539 -137 288 C-136.34 288 -135.68 288 -135 288 C-134.91298828 286.82630859 -134.91298828 286.82630859 -134.82421875 285.62890625 C-133.67523486 280.57010986 -131.2849834 276.47045132 -128.8125 271.9375 C-124.05904506 263.03239314 -119.54060449 254.04487985 -115.1875 244.9375 C-110.32891446 234.78158414 -105.37110423 224.68280342 -100.3125 214.625 C-95.33590764 204.72670768 -90.46390211 194.78581423 -85.71020508 184.77807617 C-82.26389795 177.52756372 -78.71133015 170.33765755 -75.09375 163.17138672 C-72.88497229 158.78637134 -70.69440885 154.39221813 -68.5 150 C-67.63548196 148.27080069 -66.77089825 146.54163421 -65.90625 144.8125 C-65.44621582 143.89178711 -64.98618164 142.97107422 -64.51220703 142.02246094 C-63.45273964 139.90489454 -62.39102532 137.78845154 -61.32763672 135.67285156 C-54.83478928 122.74384563 -48.48601183 109.74422089 -42.125 96.75 C-40.41625938 93.26075937 -38.70733438 89.77160915 -36.9982605 86.28253174 C-35.94295497 84.12798201 -34.8878712 81.97332365 -33.83303833 79.81854248 C-33.35849213 78.84942932 -32.88394592 77.88031616 -32.39501953 76.88183594 C-31.97946808 76.03296814 -31.56391663 75.18410034 -31.13577271 74.30950928 C-30.09933057 72.20198131 -29.05032247 70.10064493 -28 68 C-42.52 68 -57.04 68 -72 68 C-65.2615297 60.13845132 -65.2615297 60.13845132 -62.328125 57.44921875 C-61.67255615 56.84198975 -61.0169873 56.23476074 -60.34155273 55.60913086 C-59.65134033 54.97499268 -58.96112793 54.34085449 -58.25 53.6875 C-51.07466076 47.0247415 -44.10624626 40.18565024 -37.24121094 33.20385742 C-33.28320049 29.19890143 -29.22971118 25.41141171 -24.9621582 21.73950195 C-21.61390985 18.77119667 -18.5050692 15.57000839 -15.375 12.375 C-3.24849398 0 -3.24849398 0 0 0 Z " fill="#032AC6" transform="translate(218,78)"/>
<path d="M0 0 C0.66 0 1.32 0 2 0 C0.57938642 4.64535747 -1.32445641 8.90015136 -3.52734375 13.21484375 C-3.87217804 13.89890289 -4.21701233 14.58296204 -4.57229614 15.28775024 C-5.30925832 16.74923337 -6.04791114 18.20986502 -6.78811646 19.66970825 C-8.73022616 23.50158873 -10.65811726 27.340603 -12.5859375 31.1796875 C-12.96829056 31.94066238 -13.35064362 32.70163727 -13.74458313 33.485672 C-19.44595051 44.85194564 -24.89743144 56.33823955 -30.26953125 67.86328125 C-30.62716553 68.62890381 -30.9847998 69.39452637 -31.35327148 70.18334961 C-31.99816481 71.56667277 -32.64001993 72.95142014 -33.27758789 74.33813477 C-34.86712707 77.75651296 -36.57171473 81.06445093 -38.42578125 84.34765625 C-41.12598087 89.1466474 -43.48117421 94.07618254 -45.8125 99.0625 C-50.07919849 108.11089893 -54.49275952 117.06898645 -59 126 C-64.61 126 -70.22 126 -76 126 C-74.8228158 123.05703949 -73.6741404 120.21106299 -72.3359375 117.35546875 C-72.02269531 116.68700928 -71.70945312 116.0185498 -71.38671875 115.32983398 C-71.05285156 114.62286377 -70.71898437 113.91589355 -70.375 113.1875 C-70.02308594 112.44121338 -69.67117187 111.69492676 -69.30859375 110.92602539 C-66.32660997 104.63242129 -63.24121 98.39443352 -60.10498047 92.17651367 C-53.46400472 79.0016407 -46.94381299 65.77244687 -40.5 52.5 C-34.73731496 40.63048561 -28.93022396 28.78683134 -23 17 C-22.34 17.99 -21.68 18.98 -21 20 C-21.99 21.98 -22.98 23.96 -24 26 C-23.34 26 -22.68 26 -22 26 C-22 25.34 -22 24.68 -22 24 C-21.34 24 -20.68 24 -20 24 C-19.505 25.485 -19.505 25.485 -19 27 C-16.52733235 26.65555119 -16.52733235 26.65555119 -14 26 C-13.67 25.34 -13.34 24.68 -13 24 C-12.34 24 -11.68 24 -11 24 C-10.67 21.03 -10.34 18.06 -10 15 C-8.68 14.67 -7.36 14.34 -6 14 C-5.896875 12.9275 -5.79375 11.855 -5.6875 10.75 C-5.02797801 7.15260731 -4.54223809 5.54223809 -2 3 C-1.34 3 -0.68 3 0 3 C0 2.01 0 1.02 0 0 Z " fill="#062CC3" transform="translate(98,362)"/>
<path d="M0 0 C39.27 0 78.54 0 119 0 C121.64 5.28 124.28 10.56 127 16 C126.34 17.32 125.68 18.64 125 20 C123 17 123 17 123 14 C122.34 14 121.68 14 121 14 C120.71125 12.9275 120.4225 11.855 120.125 10.75 C119.07763897 6.86970932 119.07763897 6.86970932 117 3 C79.38 2.67 41.76 2.34 3 2 C4.32 4.64 5.64 7.28 7 10 C7 11.32 7 12.64 7 14 C7.66 14 8.32 14 9 14 C9.32613281 14.79664063 9.65226563 15.59328125 9.98828125 16.4140625 C12.69269132 23.09954291 12.69269132 23.09954291 15.875 29.5625 C17 32 17 32 16 35 C0 3.30860534 0 3.30860534 0 0 Z " fill="#2340AE" transform="translate(222,18)"/>
<path d="M0 0 C52.14 0 104.28 0 158 0 C158.33 1.32 158.66 2.64 159 4 C158.01 3.67 157.02 3.34 156 3 C153.90751491 2.8965747 151.81187959 2.85356077 149.71687317 2.84178162 C147.74177513 2.82709839 147.74177513 2.82709839 145.72677612 2.81211853 C144.26422155 2.80621429 142.8016666 2.80040385 141.33911133 2.79467773 C139.80173987 2.78509938 138.26437105 2.77508933 136.727005 2.76467896 C132.54964678 2.73761915 128.37227724 2.7166154 124.19487977 2.69667697 C119.83063837 2.67482407 115.46643188 2.64743197 111.10221863 2.62062073 C102.83625086 2.57068444 94.57026372 2.52574907 86.30425805 2.48259836 C76.89442913 2.433234 67.48463524 2.3783129 58.07484019 2.32291877 C38.71659263 2.20908435 19.35831204 2.10224847 0 2 C0 1.34 0 0.68 0 0 Z " fill="#C9D7FD" transform="translate(243,381)"/>
<path d="M0 0 C2.55375615 3.17494007 4.37447153 6.48103661 6.1875 10.125 C6.71730469 11.17945313 7.24710938 12.23390625 7.79296875 13.3203125 C9 16 9 16 9 18 C-30.27 18 -69.54 18 -110 18 C-110.66 16.35 -111.32 14.7 -112 13 C-111.34 13 -110.68 13 -110 13 C-110 13.66 -110 14.32 -110 15 C-72.05 15.33 -34.1 15.66 5 16 C2.68702878 7.74549932 2.68702878 7.74549932 0 4 C0 2.68 0 1.36 0 0 Z " fill="#334EB0" transform="translate(563,470)"/>
<path d="M0 0 C0.33 0 0.66 0 1 0 C1 1.65 1 3.3 1 5 C52.15 5 103.3 5 156 5 C164 20 164 20 166 25 C165.34 25.33 164.68 25.66 164 26 C162.49352402 23.04492094 160.99593635 20.08542659 159.5 17.125 C158.85611328 15.86236328 158.85611328 15.86236328 158.19921875 14.57421875 C157.79316406 13.76855469 157.38710938 12.96289062 156.96875 12.1328125 C156.59169922 11.38918457 156.21464844 10.64555664 155.82617188 9.87939453 C155 8 155 8 155 6 C102.86 6 50.72 6 -3 6 C-2.01 4.02 -1.02 2.04 0 0 Z " fill="#132D9B" transform="translate(246,375)"/>
<path d="M0 0 C0.99 0.495 0.99 0.495 2 1 C1.50628906 1.97582031 1.01257813 2.95164062 0.50390625 3.95703125 C-0.14333531 5.24213405 -0.79046488 6.52729325 -1.4375 7.8125 C-1.92573242 8.77639648 -1.92573242 8.77639648 -2.42382812 9.75976562 C-3.79232676 12.48265466 -5.03483265 15.10449794 -6 18 C-29.1 18 -52.2 18 -76 18 C-75.67 16.35 -75.34 14.7 -75 13 C-74.34 13.66 -73.68 14.32 -73 15 C-70.12693209 15.33274566 -70.12693209 15.33274566 -66.71435547 15.31884766 C-66.07032776 15.32889328 -65.42630005 15.3389389 -64.76275635 15.34928894 C-62.63090927 15.38021583 -60.49918829 15.39718194 -58.3671875 15.4140625 C-56.89029854 15.43276656 -55.41342035 15.4523394 -53.93655396 15.4727478 C-50.04695983 15.52415576 -46.15733102 15.56373485 -42.26757812 15.60089111 C-38.29939128 15.64087667 -34.33134978 15.69199378 -30.36328125 15.7421875 C-22.57562041 15.83904926 -14.78788948 15.92342095 -7 16 C-7 14.68 -7 13.36 -7 12 C-6.34 12 -5.68 12 -5 12 C-4.855625 11.05125 -4.71125 10.1025 -4.5625 9.125 C-4 6 -4 6 -3 4 C-2.34 4 -1.68 4 -1 4 C-0.67 2.68 -0.34 1.36 0 0 Z " fill="#354FB0" transform="translate(158,470)"/>
<path d="M0 0 C0.33 0.66 0.66 1.32 1 2 C0.67 2.66 0.34 3.32 0 4 C-0.99 4 -1.98 4 -3 4 C-3.12375 4.61875 -3.2475 5.2375 -3.375 5.875 C-4 8 -4 8 -6 10 C-2.45825195 11.18058268 0.4862114 11.19499082 4.22265625 11.28125 C4.9239415 11.29965942 5.62522675 11.31806885 6.34776306 11.33703613 C9.34570251 11.41562575 12.34386156 11.48352912 15.34204102 11.55224609 C17.53152621 11.60395314 19.72081814 11.66119922 21.91015625 11.71875 C23.22121338 11.74904297 24.53227051 11.77933594 25.88305664 11.81054688 C29 12 29 12 31 13 C31.4140625 15.06640625 31.4140625 15.06640625 31.625 17.5625 C31.69976562 18.38878906 31.77453125 19.21507812 31.8515625 20.06640625 C31.90054688 20.70449219 31.94953125 21.34257812 32 22 C31.34 22 30.68 22 30 22 C29.67 22.66 29.34 23.32 29 24 C28.34 24 27.68 24 27 24 C27 24.66 27 25.32 27 26 C26.34 26 25.68 26 25 26 C26.34268655 21.66208962 27.93212679 18.13574643 30 14 C15.48 14 0.96 14 -14 14 C-7.25 6.125 -7.25 6.125 -3.625 3.0625 C-2.93664062 2.47597656 -2.24828125 1.88945312 -1.5390625 1.28515625 C-1.03117188 0.86105469 -0.52328125 0.43695313 0 0 Z " fill="#1935A0" transform="translate(160,132)"/>
<path d="M0 0 C0.66 0 1.32 0 2 0 C3.2745084 2.35223997 4.54465898 4.70666931 5.8125 7.0625 C6.16892578 7.71927734 6.52535156 8.37605469 6.89257812 9.05273438 C8.63552296 12.29876925 10.24985694 15.51837016 11.63671875 18.93359375 C12.65114623 22.09041312 12.65114623 22.09041312 15 23 C15.90302199 25.07521399 16.7242974 27.18641268 17.5 29.3125 C19.09109458 33.78613872 19.09109458 33.78613872 21.15625 38.04296875 C22 40 22 40 22 46 C3.19 46 -15.62 46 -35 46 C-35 45.67 -35 45.34 -35 45 C-16.52 45 1.96 45 21 45 C18.55190561 38.87976402 16.4399356 33.68139373 13.3125 28.0625 C10.00054087 22.01131456 6.94876121 15.86098179 4 9.625 C3.40312378 8.36635132 3.40312378 8.36635132 2.79418945 7.08227539 C0 1.13452908 0 1.13452908 0 0 Z " fill="#2A46B0" transform="translate(328,234)"/>
<path d="M0 0 C0.66 0.33 1.32 0.66 2 1 C2 1.66 2 2.32 2 3 C41.27 3 80.54 3 121 3 C121 3.33 121 3.66 121 4 C81.07 4 41.14 4 0 4 C-0.33 3.01 -0.66 2.02 -1 1 C-0.67 0.67 -0.34 0.34 0 0 Z " fill="#ECFBFF" transform="translate(451,485)"/>
<path d="M0 0 C18.81 0 37.62 0 57 0 C57 0.33 57 0.66 57 1 C38.52 1 20.04 1 1 1 C0.67 2.65 0.34 4.3 0 6 C-0.66 6 -1.32 6 -2 6 C-2.12375 6.556875 -2.2475 7.11375 -2.375 7.6875 C-3 10 -3 10 -4 12.3125 C-5.14738637 15.09816193 -5.14738637 15.09816193 -5.5 18.625 C-6 22 -6 22 -8 25 C-9.32 25 -10.64 25 -12 25 C-9.07691183 16.23073549 -4.30518137 8.17984461 0 0 Z " fill="#0B2DB0" transform="translate(293,280)"/>
<path d="M0 0 C0.66 0.99 1.32 1.98 2 3 C0.70079695 6.82543121 -0.70650894 9.59089125 -3.0625 12.875 C-5.17983375 16.29005443 -5.76687123 18.99461171 -6.5 22.8828125 C-7.14958554 25.63340127 -8.39328913 27.69471919 -10 30 C-10.33 30.66 -10.66 31.32 -11 32 C-11.66 32 -12.32 32 -13 32 C-14.121092 28.61214067 -14.03386366 28.08149303 -12.55859375 24.53125 C-11.86348674 23.18129315 -11.15571665 21.83780495 -10.4375 20.5 C-9.69649603 19.07297822 -8.95561189 17.64589421 -8.21484375 16.21875 C-7.84214355 15.51105469 -7.46944336 14.80335938 -7.08544922 14.07421875 C-5.51355838 11.07044354 -4.00746349 8.03661711 -2.5 5 C-1.25 2.5 -1.25 2.5 0 0 Z " fill="#243FB4" transform="translate(187,273)"/>
<path d="M0 0 C0.97920084 3.41632293 0.80093488 5.52928219 0 9 C0 9.99 0 10.98 0 12 C-1.3125 14.1875 -1.3125 14.1875 -3 16 C-3.99 16 -4.98 16 -6 16 C-6.33 18.31 -6.66 20.62 -7 23 C-7.99 23.33 -8.98 23.66 -10 24 C-10.12375 24.7425 -10.2475 25.485 -10.375 26.25 C-10.95486701 28.80141485 -11.73708739 30.7267573 -13 33 C-13.66 33 -14.32 33 -15 33 C-13.63864937 28.64023152 -11.95568515 24.61464589 -9.9609375 20.5078125 C-9.67521881 19.91700897 -9.38950012 19.32620544 -9.09512329 18.71749878 C-8.191824 16.85165681 -7.28350839 14.9883102 -6.375 13.125 C-5.75747773 11.8517248 -5.14028701 10.57828876 -4.5234375 9.3046875 C-3.01945183 6.20125692 -1.51096073 3.10004175 0 0 Z " fill="#2743B7" transform="translate(209,228)"/>
<path d="M0 0 C1.4535556 2.90711121 0.71133997 4.89597103 0 8 C-2 10 -2 10 -4.9359436 10.24050903 C-6.82124283 10.2338472 -6.82124283 10.2338472 -8.74462891 10.22705078 C-9.78382225 10.22748886 -9.78382225 10.22748886 -10.8440094 10.22793579 C-13.13832034 10.22654031 -15.43230816 10.21096919 -17.7265625 10.1953125 C-19.31553978 10.19158314 -20.90451936 10.1887358 -22.49349976 10.18673706 C-26.67914154 10.17909453 -30.8646449 10.15944081 -35.05023193 10.1373291 C-39.31992724 10.11688396 -43.58964487 10.1077382 -47.859375 10.09765625 C-56.23964691 10.07619543 -64.61980625 10.04205211 -73 10 C-73 9.67 -73 9.34 -73 9 C-49.9 9 -26.8 9 -3 9 C-2.67 7.35 -2.34 5.7 -2 4 C-0.9375 1.6875 -0.9375 1.6875 0 0 Z " fill="#E4F4FD" transform="translate(155,479)"/>
<path d="M0 0 C0.66 0 1.32 0 2 0 C0.61902341 4.4748383 -1.14918679 8.53202474 -3.2578125 12.7109375 C-3.56572723 13.32393707 -3.87364197 13.93693665 -4.19088745 14.56851196 C-5.16515063 16.50593658 -6.14496917 18.4404876 -7.125 20.375 C-7.7907353 21.69642788 -8.45610353 23.01804076 -9.12109375 24.33984375 C-10.74315823 27.56204525 -12.37021374 30.78169593 -14 34 C-15.22419163 30.06204091 -14.48320272 27.83887763 -13 24 C-12.34 24 -11.68 24 -11 24 C-10.505 19.545 -10.505 19.545 -10 15 C-8.68 14.67 -7.36 14.34 -6 14 C-5.8453125 12.39125 -5.8453125 12.39125 -5.6875 10.75 C-5.02797801 7.15260731 -4.54223809 5.54223809 -2 3 C-1.34 3 -0.68 3 0 3 C0 2.01 0 1.02 0 0 Z " fill="#1130B0" transform="translate(98,362)"/>
<path d="M0 0 C0.83819158 1.62249941 1.6704116 3.24808497 2.5 4.875 C2.9640625 5.77992187 3.428125 6.68484375 3.90625 7.6171875 C5 10 5 10 5 12 C2.525 11.505 2.525 11.505 0 11 C0 9.35 0 7.7 0 6 C-0.66 5.67 -1.32 5.34 -2 5 C-2.99 5.33 -3.98 5.66 -5 6 C-5.33 6.99 -5.66 7.98 -6 9 C-8 10 -10 11 -12 12 C-12.33 12.99 -12.66 13.98 -13 15 C-15.0625 16.6875 -15.0625 16.6875 -17 18 C-17.66 17.34 -18.32 16.68 -19 16 C-3.25218914 0 -3.25218914 0 0 0 Z " fill="#2540AF" transform="translate(218,78)"/>
<path d="M0 0 C0.33 0 0.66 0 1 0 C0.67 2.97 0.34 5.94 0 9 C-0.66 9 -1.32 9 -2 9 C-2.1546875 9.7734375 -2.1546875 9.7734375 -2.3125 10.5625 C-3.24263866 13.86026435 -4.61395512 16.86633332 -6 20 C-6.66 20 -7.32 20 -8 20 C-8.12375 20.70125 -8.2475 21.4025 -8.375 22.125 C-9.03838345 25.17656387 -9.97211955 28.05340938 -11 31 C-11.66 31 -12.32 31 -13 31 C-13 32.65 -13 34.3 -13 36 C-14.32 36 -15.64 36 -17 36 C-15.64964206 31.60215128 -13.92145097 27.68044432 -11.77734375 23.61328125 C-11.47180069 23.02959274 -11.16625763 22.44590424 -10.85145569 21.8445282 C-9.88432943 19.99828055 -8.91134841 18.15520944 -7.9375 16.3125 C-6.96087987 14.45867904 -5.98557925 12.60419336 -5.01283264 10.74833679 C-4.13374864 9.07200387 -3.25045553 7.39788024 -2.36694336 5.72387695 C-0.9242297 3.01081458 -0.9242297 3.01081458 0 0 Z " fill="#2C48B5" transform="translate(172,303)"/>
<path d="M0 0 C0.66 0 1.32 0 2 0 C0.7334132 4.03933473 -0.75967788 7.74877021 -2.6796875 11.51953125 C-3.19660156 12.54240234 -3.71351563 13.56527344 -4.24609375 14.61914062 C-4.78363281 15.67294922 -5.32117188 16.72675781 -5.875 17.8125 C-9.42920061 24.8041574 -12.91138699 31.78828295 -16 39 C-17.49501294 34.51496117 -15.79464143 31.24585898 -14 27 C-12.69418644 24.9819245 -11.36363208 22.97946592 -10 21 C-8.75675853 17.7750792 -8.75675853 17.7750792 -8 15 C-7.34 15 -6.68 15 -6 15 C-6 13.02 -6 11.04 -6 9 C-5.34 9 -4.68 9 -4 9 C-3.34 6.69 -2.68 4.38 -2 2 C-1.34 2 -0.68 2 0 2 C0 1.34 0 0.68 0 0 Z " fill="#1A38AE" transform="translate(231,321)"/>
<path d="M0 0 C0.66 0 1.32 0 2 0 C-0.20280834 7.27001933 -3.22486108 13.81147108 -6.6875 20.5625 C-7.19861328 21.57119141 -7.70972656 22.57988281 -8.23632812 23.61914062 C-9.48540841 26.08228026 -10.74003611 28.54241501 -12 31 C-12.87840996 27.90279155 -12.99435406 26.09354597 -12 23 C-12.66 22.67 -13.32 22.34 -14 22 C-13.34 20.35 -12.68 18.7 -12 17 C-11.67 17.99 -11.34 18.98 -11 20 C-10.34 19.67 -9.68 19.34 -9 19 C-8.67 18.01 -8.34 17.02 -8 16 C-7.34 16 -6.68 16 -6 16 C-6 14.68 -6 13.36 -6 12 C-5.34 12 -4.68 12 -4 12 C-4 10.68 -4 9.36 -4 8 C-3.34 8 -2.68 8 -2 8 C-1.855625 6.865625 -1.71125 5.73125 -1.5625 4.5625 C-1 1 -1 1 0 0 Z " fill="#2C46B1" transform="translate(127,303)"/>
<path d="M0 0 C0.66 0 1.32 0 2 0 C0.56211601 4.66527427 -1.32940591 8.99482683 -3.4765625 13.3671875 C-3.80667328 14.04677521 -4.13678406 14.72636292 -4.47689819 15.42654419 C-5.52281436 17.57773005 -6.57381617 19.7263841 -7.625 21.875 C-8.33888027 23.34098099 -9.05242538 24.80712525 -9.765625 26.2734375 C-11.50654591 29.85085827 -13.25202945 33.42601883 -15 37 C-15.33 37 -15.66 37 -16 37 C-16 35.02 -16 33.04 -16 31 C-15.34 31 -14.68 31 -14 31 C-14 29.68 -14 28.36 -14 27 C-13.34 27 -12.68 27 -12 27 C-12 25.35 -12 23.7 -12 22 C-11.34 22 -10.68 22 -10 22 C-10 20.68 -10 19.36 -10 18 C-9.34 18 -8.68 18 -8 18 C-7.62875 16.453125 -7.62875 16.453125 -7.25 14.875 C-6.17294536 11.05914927 -4.26485537 8.2557296 -2 5 C-1.28426473 3.35380887 -0.5974304 1.69271945 0 0 Z " fill="#1432AC" transform="translate(257,268)"/>
<path d="M0 0 C0.66 0.33 1.32 0.66 2 1 C1.43285278 2.08099976 1.43285278 2.08099976 0.85424805 3.18383789 C-0.87069389 6.47532222 -2.59162791 9.76888615 -4.3125 13.0625 C-4.90740234 14.19623047 -5.50230469 15.32996094 -6.11523438 16.49804688 C-8.9491832 21.92846279 -11.71433506 27.31471788 -14 33 C-14.33 33 -14.66 33 -15 33 C-15 31.02 -15 29.04 -15 27 C-14.34 27 -13.68 27 -13 27 C-12.87625 26.443125 -12.7525 25.88625 -12.625 25.3125 C-11.54714603 21.32444032 -9.8979271 17.66028797 -8 14 C-7.34 14 -6.68 14 -6 14 C-6.12375 12.700625 -6.12375 12.700625 -6.25 11.375 C-5.94126623 7.20709412 -4.60239421 5.21472226 -2 2 C-1.34 2 -0.68 2 0 2 C0 1.34 0 0.68 0 0 Z " fill="#1A37AD" transform="translate(212,361)"/>
<path d="M0 0 C1.01492872 3.5149608 0.83453136 5.29007469 -0.4375 8.75 C-0.72496094 9.54921875 -1.01242188 10.3484375 -1.30859375 11.171875 C-1.53675781 11.77515625 -1.76492187 12.3784375 -2 13 C-2.99 13 -3.98 13 -5 13 C-4.87625 14.051875 -4.87625 14.051875 -4.75 15.125 C-5.08062581 18.92719683 -6.88703964 20.86257401 -9 24 C-9.79070548 27.23038842 -9.79070548 27.23038842 -10 30 C-11.32 30.33 -12.64 30.66 -14 31 C-12.462002 25.9737591 -10.3877444 21.35236933 -8.125 16.625 C-7.78597656 15.90828125 -7.44695312 15.1915625 -7.09765625 14.453125 C-4.79511139 9.60289743 -2.41405297 4.79562989 0 0 Z " fill="#1535A9" transform="translate(105,318)"/>
<path d="M0 0 C0.92178952 3.68715806 1.39060961 6.25014779 1 10 C-0.875 12.375 -0.875 12.375 -3 14 C-3.66 14 -4.32 14 -5 14 C-5 15.98 -5 17.96 -5 20 C-5.639375 20.2475 -6.27875 20.495 -6.9375 20.75 C-9.18741541 21.81562433 -9.18741541 21.81562433 -9.75 24.125 C-9.8325 24.74375 -9.915 25.3625 -10 26 C-10.66 25.67 -11.32 25.34 -12 25 C-8.04 16.75 -4.08 8.5 0 0 Z " fill="#203EB6" transform="translate(129,390)"/>
<path d="M0 0 C3 1 3 1 3.921875 2.57421875 C4.19515625 3.27160156 4.4684375 3.96898437 4.75 4.6875 C6.52645184 8.96058686 8.48899675 13.11441627 10.5625 17.25 C11.14128906 18.41015625 11.72007812 19.5703125 12.31640625 20.765625 C13.92835937 23.96125784 13.92835937 23.96125784 15.703125 26.74609375 C17.21342264 29.37091826 17.25539788 31.02035803 17 34 C14.3622591 30.73489102 12.52225764 27.30271948 10.64453125 23.5546875 C10.33803146 22.94360138 10.03153168 22.33251526 9.71574402 21.70291138 C9.07260829 20.41799494 8.43147285 19.13207555 7.79223633 17.84521484 C6.81082246 15.87162653 5.82089402 13.90247562 4.83007812 11.93359375 C4.20521562 10.68254804 3.5808491 9.43125445 2.95703125 8.1796875 C2.38960205 7.04257324 1.82217285 5.90545898 1.23754883 4.73388672 C0 2 0 2 0 0 Z " fill="#1B37A9" transform="translate(279,134)"/>
<path d="M0 0 C0.99 0 1.98 0 3 0 C2.67 1.98 2.34 3.96 2 6 C-2.29 6 -6.58 6 -11 6 C-10.34 4.35 -9.68 2.7 -9 1 C-6.03 1 -3.06 1 0 1 C0 0.67 0 0.34 0 0 Z " fill="#042AC4" transform="translate(36,480)"/>
<path d="M0 0 C0.33 0.99 0.66 1.98 1 3 C0.01 3.33 -0.98 3.66 -2 4 C-2 4.99 -2 5.98 -2 7 C-2.99 7 -3.98 7 -5 7 C-5.33 7.99 -5.66 8.98 -6 10 C-7.63604196 11.37073786 -9.30678061 12.70055256 -11 14 C-12.35147138 15.31494512 -13.69112542 16.64264858 -15 18 C-15.99 17.67 -16.98 17.34 -18 17 C-15.37906078 14.35011735 -12.75257802 11.70579857 -10.125 9.0625 C-9.37863281 8.30775391 -8.63226563 7.55300781 -7.86328125 6.77539062 C-7.14785156 6.05673828 -6.43242187 5.33808594 -5.6953125 4.59765625 C-5.03547363 3.93258057 -4.37563477 3.26750488 -3.69580078 2.58227539 C-2 1 -2 1 0 0 Z " fill="#2643B4" transform="translate(189,104)"/>
<path d="M0 0 C0.66 0.33 1.32 0.66 2 1 C-2.29 9.91 -6.58 18.82 -11 28 C-11.33 28 -11.66 28 -12 28 C-12 26.35 -12 24.7 -12 23 C-11.34 23 -10.68 23 -10 23 C-10 21.68 -10 20.36 -10 19 C-9.34 19 -8.68 19 -8 19 C-7.505 14.545 -7.505 14.545 -7 10 C-6.34 10 -5.68 10 -5 10 C-4.5978125 8.3603125 -4.5978125 8.3603125 -4.1875 6.6875 C-3.12336261 3.38307337 -2.65345336 2.05039578 0 0 Z " fill="#1B3AB0" transform="translate(204,148)"/>
<path d="M0 0 C2.125 0.375 2.125 0.375 4 1 C3.09636719 1.83144531 2.19273437 2.66289062 1.26171875 3.51953125 C0.07028184 4.61715423 -1.12112271 5.71481232 -2.3125 6.8125 C-3.20485352 7.63331055 -3.20485352 7.63331055 -4.11523438 8.47070312 C-4.69208984 9.00244141 -5.26894531 9.53417969 -5.86328125 10.08203125 C-6.39219971 10.56905518 -6.92111816 11.0560791 -7.46606445 11.55786133 C-9.0092835 13.00872793 -10.51015856 14.49453768 -12 16 C-9.69 16.33 -7.38 16.66 -5 17 C-5 17.33 -5 17.66 -5 18 C-7.97 18 -10.94 18 -14 18 C-14.33 17.01 -14.66 16.02 -15 15 C-14.01 14.67 -13.02 14.34 -12 14 C-12 13.01 -12 12.02 -12 11 C-11.01 11 -10.02 11 -9 11 C-8.67 9.68 -8.34 8.36 -8 7 C-7.38125 6.9175 -6.7625 6.835 -6.125 6.75 C-3.83647371 6.20051917 -3.83647371 6.20051917 -2.875 4.0625 C-2.441875 3.0415625 -2.441875 3.0415625 -2 2 C-1.34 1.34 -0.68 0.68 0 0 Z " fill="#D3E0F9" transform="translate(159,129)"/>
<path d="M0 0 C0.66 0 1.32 0 2 0 C0.70242463 4.15116435 -0.85943494 7.95590318 -2.8203125 11.8359375 C-3.35527344 12.89941406 -3.89023438 13.96289062 -4.44140625 15.05859375 C-4.99699219 16.15300781 -5.55257812 17.24742187 -6.125 18.375 C-6.68832031 19.49261719 -7.25164062 20.61023438 -7.83203125 21.76171875 C-9.21774567 24.5096609 -10.60716947 27.2556598 -12 30 C-13.25541557 26.23375329 -12.37061958 24.62811066 -11 21 C-10.34 21 -9.68 21 -9 21 C-8.83177734 20.20335937 -8.83177734 20.20335937 -8.66015625 19.390625 C-7.83141323 16.38949642 -6.65240018 13.61591837 -5.4375 10.75 C-4.98246094 9.67234375 -4.52742187 8.5946875 -4.05859375 7.484375 C-3.70925781 6.66453125 -3.35992187 5.8446875 -3 5 C-2.34 5 -1.68 5 -1 5 C-0.67 3.35 -0.34 1.7 0 0 Z " fill="#1D38AA" transform="translate(142,273)"/>
<path d="M0 0 C0.6875 1.625 0.6875 1.625 1 4 C0.01789629 6.0088485 -0.98440599 8.00787329 -2 10 C-2.165 11.216875 -2.33 12.43375 -2.5 13.6875 C-3 17 -3 17 -4.4375 18.9375 C-6 20 -6 20 -8 20 C-8.33 21.32 -8.66 22.64 -9 24 C-9.66 24 -10.32 24 -11 24 C-9.53535546 19.05394907 -7.41781701 14.7983685 -4.9375 10.3125 C-2.15217401 5.30290526 -2.15217401 5.30290526 0 0 Z " fill="#1C3AB6" transform="translate(226,194)"/>
<path d="M0 0 C1.98 0.66 3.96 1.32 6 2 C6 2.66 6 3.32 6 4 C8.94729537 5.15811388 8.94729537 5.15811388 12 5 C12.66 5 13.32 5 14 5 C13.67 7.31 13.34 9.62 13 12 C13.99 12.33 14.98 12.66 16 13 C15.34 13.66 14.68 14.32 14 15 C11.66265901 12.69152056 9.33081534 10.37756659 7 8.0625 C6.33226562 7.40314453 5.66453125 6.74378906 4.9765625 6.06445312 C4.34492188 5.43603516 3.71328125 4.80761719 3.0625 4.16015625 C2.47597656 3.57886963 1.88945312 2.99758301 1.28515625 2.39868164 C0 1 0 1 0 0 Z " fill="#1737B8" transform="translate(215,145)"/>
<path d="M0 0 C11.88 0 23.76 0 36 0 C34.54996379 4.35010863 33.09990776 7.99108518 31 12 C30.375 10.1875 30.375 10.1875 30 8 C30.66 7.01 31.32 6.02 32 5 C32 4.01 32 3.02 32 2 C21.44 1.67 10.88 1.34 0 1 C0 0.67 0 0.34 0 0 Z " fill="#E5F1FE" transform="translate(154,146)"/>
<path d="M0 0 C0.33 0 0.66 0 1 0 C1.1953125 6.0546875 1.1953125 6.0546875 1 8 C0.34 8.66 -0.32 9.32 -1 10 C-1.680625 11.7634375 -1.680625 11.7634375 -2.375 13.5625 C-4 17 -4 17 -6.1875 17.9375 C-7.0846875 17.9684375 -7.0846875 17.9684375 -8 18 C-6.65150163 13.64029169 -4.95092154 9.68658562 -2.875 5.625 C-2.33617187 4.56539062 -1.79734375 3.50578125 -1.2421875 2.4140625 C-0.83226562 1.61742187 -0.42234375 0.82078125 0 0 Z " fill="#1737B9" transform="translate(161,205)"/>
<path d="M0 0 C3.02997299 3.69368136 5.14069507 7.77130046 7.3125 12 C7.69728516 12.7115625 8.08207031 13.423125 8.47851562 14.15625 C11.17691405 19.42525385 11.17691405 19.42525385 10.23046875 22.5 C9.82441406 22.995 9.41835938 23.49 9 24 C8.566875 22.824375 8.566875 22.824375 8.125 21.625 C7.15087746 18.90328368 7.15087746 18.90328368 5 17 C4.3671875 14.8359375 4.3671875 14.8359375 3.875 12.375 C3.70742188 11.55773438 3.53984375 10.74046875 3.3671875 9.8984375 C3.24601562 9.27195312 3.12484375 8.64546875 3 8 C2.34 8 1.68 8 1 8 C0.67 5.36 0.34 2.72 0 0 Z " fill="#2A46B3" transform="translate(355,48)"/>
<path d="M0 0 C2.91878393 3.54230123 4.84367372 7.38663069 6.8125 11.5 C7.14958984 12.16386719 7.48667969 12.82773438 7.83398438 13.51171875 C10.18499012 18.42968901 10.18499012 18.42968901 9.19921875 21.46875 C8.80347656 21.9740625 8.40773438 22.479375 8 23 C7.73445313 22.39671875 7.46890625 21.7934375 7.1953125 21.171875 C6.66550781 19.97304687 6.66550781 19.97304687 6.125 18.75 C5.60292969 17.56664062 5.60292969 17.56664062 5.0703125 16.359375 C4.38843831 14.85626548 3.68000953 13.3647248 2.9375 11.890625 C0.93934891 7.86102031 0 4.50676551 0 0 Z " fill="#1D3BB5" transform="translate(411,161)"/>
<path d="M0 0 C2.87210085 1.03884499 3.86719033 1.76886714 5.4140625 4.4609375 C6.01347656 5.90339844 6.01347656 5.90339844 6.625 7.375 C7.02976563 8.33148438 7.43453125 9.28796875 7.8515625 10.2734375 C8.42003906 11.62308594 8.42003906 11.62308594 9 13 C9.36609375 13.71929687 9.7321875 14.43859375 10.109375 15.1796875 C11.19910504 17.40694276 11.59402953 19.56417716 12 22 C12.66 22 13.32 22 14 22 C13.67 22.99 13.34 23.98 13 25 C10.80279056 22.21569812 9.09822385 19.44300302 7.51953125 16.26953125 C7.07802734 15.38458984 6.63652344 14.49964844 6.18164062 13.58789062 C5.72982422 12.67201172 5.27800781 11.75613281 4.8125 10.8125 C4.34908203 9.88501953 3.88566406 8.95753906 3.40820312 8.00195312 C0 1.14037187 0 1.14037187 0 0 Z " fill="#213BAA" transform="translate(239,54)"/>
<path d="M0 0 C0.33 0 0.66 0 1 0 C0.67 2.97 0.34 5.94 0 9 C-0.66 9 -1.32 9 -2 9 C-2.0825 9.70125 -2.165 10.4025 -2.25 11.125 C-3.18009005 14.6903452 -4.76686369 17.09015572 -7 20 C-7.66 20 -8.32 20 -9 20 C-7.55676531 15.26210835 -5.62773267 11.01141849 -3.375 6.625 C-2.88773438 5.66400391 -2.88773438 5.66400391 -2.390625 4.68359375 C-1.59742593 3.12052499 -0.79922969 1.55999378 0 0 Z " fill="#2E4BB8" transform="translate(140,247)"/>
<path d="M0 0 C3.21274829 3.80242994 5.14993856 8.15486922 7.25 12.625 C7.62640625 13.40101563 8.0028125 14.17703125 8.390625 14.9765625 C8.74125 15.7190625 9.091875 16.4615625 9.453125 17.2265625 C9.77442383 17.90283691 10.09572266 18.57911133 10.42675781 19.27587891 C11 21 11 21 10 23 C6.92893485 21.46446743 6.32812424 19.07883346 5 16 C5 14.68 5 13.36 5 12 C4.34 12 3.68 12 3 12 C0.97649676 8.96474514 0.67875982 7.80573798 0.375 4.3125 C0.30023438 3.50425781 0.22546875 2.69601563 0.1484375 1.86328125 C0.09945312 1.24839844 0.05046875 0.63351563 0 0 Z " fill="#2540B6" transform="translate(250,145)"/>
<path d="M0 0 C3.29960199 2.67110637 4.4988215 6.16208137 6 10 C6.35578125 10.88429688 6.7115625 11.76859375 7.078125 12.6796875 C8.0586676 15.11723355 9.03185041 17.55751093 10 20 C8.35 20 6.7 20 5 20 C4.8046875 17.98177083 4.609375 15.96354167 4.4140625 13.9453125 C4.13625251 11.77331755 4.13625251 11.77331755 2 10 C1.875 6.875 1.875 6.875 2 4 C1.34 4 0.68 4 0 4 C0 2.68 0 1.36 0 0 Z " fill="#2744B8" transform="translate(462,265)"/>
<path d="M0 0 C2.50936411 3.15376275 4.44343203 6.43137381 6.3125 10 C6.86550781 11.03125 7.41851562 12.0625 7.98828125 13.125 C9 16 9 16 8.16796875 18.375 C7.78253906 18.91125 7.39710938 19.4475 7 20 C6.67 18.02 6.34 16.04 6 14 C5.01 13.67 4.02 13.34 3 13 C2.05078125 11.07421875 2.05078125 11.07421875 1.3125 8.6875 C0.93544922 7.51767578 0.93544922 7.51767578 0.55078125 6.32421875 C0 4 0 4 0 0 Z " fill="#2A46B9" transform="translate(434,208)"/>
<path d="M0 0 C0.66 0.99 1.32 1.98 2 3 C1.66226563 3.66386719 1.32453125 4.32773437 0.9765625 5.01171875 C0.53054687 5.89472656 0.08453125 6.77773438 -0.375 7.6875 C-1.03628906 8.99267578 -1.03628906 8.99267578 -1.7109375 10.32421875 C-2.92664268 12.84772799 -3.99260958 15.38737532 -5 18 C-5.66 18 -6.32 18 -7 18 C-7 18.66 -7 19.32 -7 20 C-7.66 20 -8.32 20 -9 20 C-7.55676531 15.26210835 -5.62773267 11.01141849 -3.375 6.625 C-2.88773437 5.66400391 -2.88773437 5.66400391 -2.390625 4.68359375 C-1.59742593 3.12052499 -0.79922969 1.55999378 0 0 Z " fill="#2440AF" transform="translate(75,379)"/>
<path d="M0 0 C0.33 0 0.66 0 1 0 C1 2.64 1 5.28 1 8 C0.01 8.495 0.01 8.495 -1 9 C-1.92866164 10.48867276 -2.79705336 12.01554706 -3.625 13.5625 C-4.07101563 14.38878906 -4.51703125 15.21507812 -4.9765625 16.06640625 C-5.31429687 16.70449219 -5.65203125 17.34257812 -6 18 C-6.66 18 -7.32 18 -8 18 C-6.443154 13.98696492 -4.68861143 10.0907072 -2.875 6.1875 C-2.33617188 5.02605469 -1.79734375 3.86460937 -1.2421875 2.66796875 C-0.62730469 1.34732422 -0.62730469 1.34732422 0 0 Z " fill="#DAE7FC" transform="translate(67,429)"/>
<path d="M0 0 C3.46387857 3.20402595 5.17952687 6.88088372 7.25 11.0625 C7.62640625 11.79533203 8.0028125 12.52816406 8.390625 13.28320312 C9.32672315 15.1571202 10.17106206 17.07627787 11 19 C10.67 19.66 10.34 20.32 10 21 C9.62488281 20.35933594 9.24976563 19.71867187 8.86328125 19.05859375 C6.42070035 14.93020135 4.00473709 10.91850231 1.0625 7.125 C-1 4 -1 4 -0.62890625 1.8046875 C-0.42136719 1.20914062 -0.21382812 0.61359375 0 0 Z " fill="#1333A8" transform="translate(515,374)"/>
<path d="M0 0 C0.66 0.99 1.32 1.98 2 3 C1.525625 3.391875 1.05125 3.78375 0.5625 4.1875 C-1.35179633 6.40808374 -1.61266988 8.13375709 -2 11 C-2.66 11 -3.32 11 -4 11 C-4.103125 11.886875 -4.20625 12.77375 -4.3125 13.6875 C-5.01715907 17.0826755 -5.9554566 19.21942098 -8 22 C-8.66 22 -9.32 22 -10 22 C-8.67491631 17.73170158 -7.03433232 13.85211968 -5 9.875 C-4.484375 8.86179688 -3.96875 7.84859375 -3.4375 6.8046875 C-2.963125 5.87914062 -2.48875 4.95359375 -2 4 C-1.3315749 2.66754733 -0.66411117 1.33460802 0 0 Z " fill="#CAD8F7" transform="translate(275,236)"/>
<path d="M0 0 C0.66 0 1.32 0 2 0 C0.50640515 4.84286815 -1.45033567 9.31350896 -3.625 13.875 C-3.94984375 14.56335938 -4.2746875 15.25171875 -4.609375 15.9609375 C-5.40323472 17.64205219 -6.20119558 19.32122921 -7 21 C-7.33 21 -7.66 21 -8 21 C-8 19.02 -8 17.04 -8 15 C-7.34 15 -6.68 15 -6 15 C-5.87625 13.865625 -5.7525 12.73125 -5.625 11.5625 C-5.41875 10.386875 -5.2125 9.21125 -5 8 C-4.34 7.67 -3.68 7.34 -3 7 C-2.34444881 4.47266765 -2.34444881 4.47266765 -2 2 C-1.34 2 -0.68 2 0 2 C0 1.34 0 0.68 0 0 Z " fill="#1D3BAF" transform="translate(173,210)"/>
<path d="M0 0 C0.6875 1.625 0.6875 1.625 1 4 C-0.4375 7.25 -0.4375 7.25 -2 10 C-1.32453125 9.97679687 -0.6490625 9.95359375 0.046875 9.9296875 C1.38492187 9.90261719 1.38492187 9.90261719 2.75 9.875 C3.63171875 9.85179687 4.5134375 9.82859375 5.421875 9.8046875 C8 10 8 10 12 12 C6.39 12 0.78 12 -5 12 C-3.38748923 7.96872308 -1.719106 3.98520027 0 0 Z " fill="#364EAD" transform="translate(27,476)"/>
<path d="M0 0 C2.84102347 3.21159174 3.82409506 5.70365519 4 10 C2.78515625 13.2109375 2.78515625 13.2109375 1.0625 16.375 C0.49660156 17.43460938 -0.06929688 18.49421875 -0.65234375 19.5859375 C-1.09707031 20.38257813 -1.54179687 21.17921875 -2 22 C-2.58984375 20.15625 -2.58984375 20.15625 -3 18 C-2.2884375 16.7625 -2.2884375 16.7625 -1.5625 15.5 C0.71944117 10.38845178 0.24102137 5.51671141 0 0 Z " fill="#223DAA" transform="translate(281,208)"/>
<path d="M0 0 C0.66 0 1.32 0 2 0 C-0.39707314 8.17824952 -4.08858772 15.46651278 -8 23 C-8.33 23 -8.66 23 -9 23 C-9 21.35 -9 19.7 -9 18 C-8.34 18 -7.68 18 -7 18 C-7 16.35 -7 14.7 -7 13 C-6.34 13 -5.68 13 -5 13 C-5 12.01 -5 11.02 -5 10 C-4.34 10 -3.68 10 -3 10 C-2.67 8.02 -2.34 6.04 -2 4 C-1.34 4 -0.68 4 0 4 C0 2.68 0 1.36 0 0 Z " fill="#D6E4FB" transform="translate(172,178)"/>
<path d="M0 0 C1.9296875 0.34375 1.9296875 0.34375 4 1 C5.125 3.5 5.125 3.5 6 6 C6.66 6.33 7.32 6.66 8 7 C8.38932033 8.98985949 8.71887936 10.99199544 9 13 C9.33 13.99 9.66 14.98 10 16 C9.34 16.99 8.68 17.98 8 19 C7.75765625 18.38253906 7.5153125 17.76507813 7.265625 17.12890625 C4.98012832 11.35363196 2.56805164 5.65517755 0 0 Z " fill="#213EB7" transform="translate(264,104)"/>
<path d="M0 0 C0.66 0 1.32 0 2 0 C0.41980408 5.2063297 -1.77884995 9.98373311 -4.125 14.875 C-4.49753906 15.65875 -4.87007812 16.4425 -5.25390625 17.25 C-6.16618997 19.16813499 -7.08266984 21.08427329 -8 23 C-9.25541557 19.23375329 -8.37061958 17.62811066 -7 14 C-6.34 14 -5.68 14 -5 14 C-4.34 10.7 -3.68 7.4 -3 4 C-2.01 3.67 -1.02 3.34 0 3 C0 2.01 0 1.02 0 0 Z " fill="#2B45AF" transform="translate(175,434)"/>
<path d="M0 0 C0.33 0 0.66 0 1 0 C1.75 3.1875 1.75 3.1875 2 7 C0.23358828 9.80189446 -1.03049822 11.51524911 -4 13 C-4.33 13.99 -4.66 14.98 -5 16 C-5.66 16 -6.32 16 -7 16 C-5.56835889 12.34061828 -4.01065704 8.76011932 -2.375 5.1875 C-1.92898437 4.21167969 -1.48296875 3.23585938 -1.0234375 2.23046875 C-0.51683594 1.12638672 -0.51683594 1.12638672 0 0 Z " fill="#193CB9" transform="translate(104,441)"/>
<path d="M0 0 C0.33 0 0.66 0 1 0 C0.52954228 5.76310703 -1.01953872 9.06361101 -4 14 C-4.76040572 16.26985894 -4.76040572 16.26985894 -5 18 C-5.66 18 -6.32 18 -7 18 C-7 19.32 -7 20.64 -7 22 C-7.99 21.67 -8.98 21.34 -10 21 C-6.7 14.07 -3.4 7.14 0 0 Z " fill="#2843B0" transform="translate(56,417)"/>
<path d="M0 0 C3.96 0 7.92 0 12 0 C12.33 2.97 12.66 5.94 13 9 C12.34 9 11.68 9 11 9 C10.67 9.66 10.34 10.32 10 11 C9.34 11 8.68 11 8 11 C8 11.66 8 12.32 8 13 C7.34 13 6.68 13 6 13 C7.31061591 8.76570244 8.94356259 4.92592596 11 1 C7.37 1 3.74 1 0 1 C0 0.67 0 0.34 0 0 Z " fill="#3851BE" transform="translate(179,145)"/>
<path d="M0 0 C1.44926837 4.45552099 0.1032744 6.86856813 -2 11 C-2.98020375 12.0194119 -3.97803008 13.02246356 -5 14 C-6.19027984 16.59915538 -6.19027984 16.59915538 -7 19 C-7.66 19 -8.32 19 -9 19 C-7.6077541 14.37324343 -5.70479016 10.35313769 -3.375 6.125 C-2.74335938 4.97257812 -2.11171875 3.82015625 -1.4609375 2.6328125 C-0.97882813 1.76398438 -0.49671875 0.89515625 0 0 Z " fill="#233EAD" transform="translate(269,328)"/>
<path d="M0 0 C1.41687119 4.25061356 0.19320039 6.71851625 -1 11 C-1.99 11 -2.98 11 -4 11 C-4.12375 11.7425 -4.2475 12.485 -4.375 13.25 C-4.95486701 15.80141485 -5.73708739 17.7267573 -7 20 C-7.66 20 -8.32 20 -9 20 C-7.55676531 15.26210835 -5.62773267 11.01141849 -3.375 6.625 C-2.88773437 5.66400391 -2.88773437 5.66400391 -2.390625 4.68359375 C-1.59742593 3.12052499 -0.79922969 1.55999378 0 0 Z " fill="#2340AC" transform="translate(121,286)"/>
<path d="M0 0 C0.66 0.33 1.32 0.66 2 1 C1.26733512 5.08641257 -0.68657975 8.59474154 -2.5625 12.25 C-2.89185547 12.8996875 -3.22121094 13.549375 -3.56054688 14.21875 C-4.37007565 15.81434294 -5.18455042 17.40742483 -6 19 C-7.7694803 13.69155911 -4.75038492 9.3960146 -2.375 4.625 C-1.58723141 3.08133784 -0.79686606 1.53898561 0 0 Z " fill="#2C47B7" transform="translate(151,254)"/>
<path d="M0 0 C2.31 0 4.62 0 7 0 C6.67 0.99 6.34 1.98 6 3 C7.65 4.65 9.3 6.3 11 8 C10.01 10.31 9.02 12.62 8 15 C7.34 14.67 6.68 14.34 6 14 C6.66 12.35 7.32 10.7 8 9 C7.4225 8.43410156 6.845 7.86820313 6.25 7.28515625 C5.13625 6.18494141 5.13625 6.18494141 4 5.0625 C3.2575 4.33160156 2.515 3.60070312 1.75 2.84765625 C0 1 0 1 0 0 Z " fill="#1C38B3" transform="translate(230,160)"/>
<path d="M0 0 C0.66 0 1.32 0 2 0 C0.65150163 4.35970831 -1.04907846 8.31341438 -3.125 12.375 C-3.66382813 13.43460937 -4.20265625 14.49421875 -4.7578125 15.5859375 C-5.16773438 16.38257813 -5.57765625 17.17921875 -6 18 C-6.33 18 -6.66 18 -7 18 C-7.1875 15.1875 -7.1875 15.1875 -7 12 C-5.5625 10.4375 -5.5625 10.4375 -4 9 C-3.27802838 6.39388923 -3.27802838 6.39388923 -3 4 C-2.34 4 -1.68 4 -1 4 C-0.67 2.68 -0.34 1.36 0 0 Z " fill="#1734AE" transform="translate(184,416)"/>
<path d="M0 0 C0.66 0.33 1.32 0.66 2 1 C-0.97 6.94 -3.94 12.88 -7 19 C-8.10191901 14.59232396 -7.58706842 13.1077065 -6 9 C-5.34 9 -4.68 9 -4 9 C-3.896875 8.2575 -3.79375 7.515 -3.6875 6.75 C-2.95746496 3.82985982 -1.93210602 2.26812446 0 0 Z " fill="#2541AE" transform="translate(78,404)"/>
<path d="M0 0 C0.66 0 1.32 0 2 0 C0.4719611 5.09882455 -1.71036856 9.65665659 -4.125 14.375 C-4.49753906 15.11105469 -4.87007812 15.84710938 -5.25390625 16.60546875 C-6.1656122 18.40550358 -7.08229932 20.20301402 -8 22 C-9.11672285 18.64983146 -8.92467164 18.07440438 -7.6875 14.9375 C-7.42324219 14.24527344 -7.15898437 13.55304688 -6.88671875 12.83984375 C-6 11 -6 11 -4 9 C-3.24785002 7.4792296 -2.54332588 5.93442705 -1.875 4.375 C-1.34519531 3.14910156 -1.34519531 3.14910156 -0.8046875 1.8984375 C-0.53914062 1.27195313 -0.27359375 0.64546875 0 0 Z " fill="#E2EEFD" transform="translate(145,233)"/>
<path d="M0 0 C3 1 3 1 4.5 3.6875 C4.995 4.780625 5.49 5.87375 6 7 C6.556875 8.010625 7.11375 9.02125 7.6875 10.0625 C9.0103343 13.02312915 9.28161835 14.8083254 9 18 C6.44624385 14.82505993 4.62552847 11.51896339 2.8125 7.875 C2.28269531 6.82054687 1.75289063 5.76609375 1.20703125 4.6796875 C0 2 0 2 0 0 Z " fill="#1F3EB0" transform="translate(312,201)"/>
<path d="M0 0 C1.125 1.5625 1.125 1.5625 2 4 C1.125 7.75 1.125 7.75 0 11 C-1.65 11.33 -3.3 11.66 -5 12 C-3.68938409 7.76570244 -2.05643741 3.92592596 0 0 Z " fill="#2947B8" transform="translate(91,467)"/>
<path d="M0 0 C1.140625 1.75390625 1.140625 1.75390625 2 4 C1.171875 5.96484375 1.171875 5.96484375 -0.25 7.9375 C-2.27193381 10.88500568 -3.82947914 13.5948484 -5 17 C-5.66 17 -6.32 17 -7 17 C-5.1668733 11.00067626 -2.92678249 5.55079437 0 0 Z " fill="#C7D6F5" transform="translate(251,284)"/>
<path d="M0 0 C2.48627517 3.0622744 4.09989404 6.1457054 5.6875 9.75 C6.12449219 10.73484375 6.56148437 11.7196875 7.01171875 12.734375 C7.33785156 13.48203125 7.66398438 14.2296875 8 15 C6.68 15 5.36 15 4 15 C4 13.35 4 11.7 4 10 C3.01 9.67 2.02 9.34 1 9 C0.67 6.03 0.34 3.06 0 0 Z " fill="#1D3AB1" transform="translate(227,99)"/>
<path d="M0 0 C2.03126422 2.70835229 3.73617646 5.06517216 5.3125 8 C5.86357422 8.99 5.86357422 8.99 6.42578125 10 C7 12 7 12 6.10546875 14.25 C5.74066406 14.8275 5.37585938 15.405 5 16 C5 14.68 5 13.36 5 12 C4.34 12 3.68 12 3 12 C3 11.34 3 10.68 3 10 C2.01 10.33 1.02 10.66 0 11 C0 7.37 0 3.74 0 0 Z " fill="#203FB2" transform="translate(546,435)"/>
<path d="M0 0 C0.66 0 1.32 0 2 0 C2.5497272 5.63470383 0.95047835 8.38987758 -2 13 C-2.99 13 -3.98 13 -5 13 C-3.58192622 8.52761347 -1.88695626 4.28853694 0 0 Z " fill="#233FB9" transform="translate(81,366)"/>
<path d="M0 0 C1.125 3.75 1.125 3.75 0 6 C0.66 6.33 1.32 6.66 2 7 C0.7260411 9.03833424 -0.61061923 11.03852126 -2 13 C-2.66 13 -3.32 13 -4 13 C-4 13.66 -4 14.32 -4 15 C-4.66 15 -5.32 15 -6 15 C-4.40109514 9.80355921 -2.25861997 4.93387858 0 0 Z " fill="#2845BA" transform="translate(154,339)"/>
<path d="M0 0 C0.6875 1.6875 0.6875 1.6875 1 4 C-0.375 6.625 -0.375 6.625 -2 9 C-2.33 9.66 -2.66 10.32 -3 11 C-3.66 11 -4.32 11 -5 11 C-6.28222189 7.96929372 -5.98589446 6.96403086 -4.75 3.8125 C-3 1 -3 1 0 0 Z " fill="#193ABC" transform="translate(179,294)"/>
<path d="M0 0 C1.76227952 2.64341928 3.19871008 5.23077235 4.625 8.0625 C5.07101562 8.94035156 5.51703125 9.81820312 5.9765625 10.72265625 C7 13 7 13 7 15 C3.13995876 13.53584643 1.73327733 11.7141657 0 8 C-0.75 4.25 -0.75 4.25 -1 1 C-0.67 0.67 -0.34 0.34 0 0 Z " fill="#2441B3" transform="translate(274,193)"/>
<path d="M0 0 C0.33 0.99 0.66 1.98 1 3 C1.99 2.67 2.98 2.34 4 2 C3.45660208 6.56454251 2.20536179 9.9728176 0 14 C-0.98120464 10.94736336 -0.98120464 9.05263664 0 6 C-0.66 5.67 -1.32 5.34 -2 5 C-1.34 3.35 -0.68 1.7 0 0 Z " fill="#1436B5" transform="translate(115,320)"/>
<path d="M0 0 C3 1 3 1 4.38671875 3.21484375 C4.81597656 4.11332031 5.24523437 5.01179688 5.6875 5.9375 C6.12449219 6.83339844 6.56148438 7.72929687 7.01171875 8.65234375 C8 11 8 11 8 13 C8.66 13 9.32 13 10 13 C9.34 14.32 8.68 15.64 8 17 C6.66161267 14.54429825 5.32913768 12.08570084 4 9.625 C3.6184375 8.92632812 3.236875 8.22765625 2.84375 7.5078125 C0 2.2265625 0 2.2265625 0 0 Z " fill="#E3EFFD" transform="translate(477,294)"/>
<path d="M0 0 C0.66 0 1.32 0 2 0 C0.35433477 5.68502535 -2.29032784 10.76681636 -5 16 C-5.33 16 -5.66 16 -6 16 C-5.67 13.03 -5.34 10.06 -5 7 C-4.34 7 -3.68 7 -3 7 C-2.67 6.01 -2.34 5.02 -2 4 C-1.34870203 2.65909241 -0.68486725 1.32407669 0 0 Z " fill="#1D3BAF" transform="translate(186,184)"/>
<path d="M0 0 C2.27804239 2.87928525 4.04034684 5.7830329 5.6875 9.0625 C6.12449219 9.91972656 6.56148437 10.77695312 7.01171875 11.66015625 C8 14 8 14 8 17 C5.69 17 3.38 17 1 17 C2.32 16.67 3.64 16.34 5 16 C4.54738642 14.56068883 4.08767021 13.12361001 3.625 11.6875 C3.36976563 10.88699219 3.11453125 10.08648437 2.8515625 9.26171875 C2.01168189 6.77275472 2.01168189 6.77275472 0 4 C0 2.68 0 1.36 0 0 Z " fill="#1D37A6" transform="translate(563,470)"/>
<path d="M0 0 C2.26332048 2.60281855 3.81333968 5.41528706 5.3125 8.5 C5.67988281 9.2528125 6.04726563 10.005625 6.42578125 10.78125 C7 13 7 13 6.10546875 15.28125 C5.74066406 15.8484375 5.37585938 16.415625 5 17 C4.690625 15.906875 4.38125 14.81375 4.0625 13.6875 C3.41662103 11.44592006 2.7376883 9.2130649 2 7 C1.01 7 0.02 7 -1 7 C-0.67 4.69 -0.34 2.38 0 0 Z " fill="#304CBA" transform="translate(532,406)"/>
<path d="M0 0 C1.12025107 3.33027019 0.89423549 5.36541892 -0.1875 8.6875 C-0.42855469 9.47511719 -0.66960937 10.26273437 -0.91796875 11.07421875 C-2 13 -2 13 -4.11328125 13.76953125 C-4.73589844 13.84558594 -5.35851563 13.92164063 -6 14 C-4.50829734 9.0276578 -2.39542583 4.58154261 0 0 Z " fill="#2C47B8" transform="translate(65,399)"/>
<path d="M0 0 C6 8 6 8 6 12 C5.01 12 4.02 12 3 12 C3 11.34 3 10.68 3 10 C2.01 10 1.02 10 0 10 C0 6.7 0 3.4 0 0 Z " fill="#2A47B7" transform="translate(508,358)"/>
<path d="M0 0 C3.78214542 4.2023838 9 11.09443215 9 17 C6.59071265 16.03628506 5.23992991 15.34789837 3.75 13.1875 C2.88918389 10.67678635 2.85352703 8.63651351 3 6 C2.34 6 1.68 6 1 6 C0.67 4.02 0.34 2.04 0 0 Z " fill="#2641AD" transform="translate(402,144)"/>
<path d="M0 0 C0.33 0 0.66 0 1 0 C0.67 2.97 0.34 5.94 0 9 C-0.66 9 -1.32 9 -2 9 C-2.103125 9.515625 -2.20625 10.03125 -2.3125 10.5625 C-3.24263866 13.86026435 -4.61395512 16.86633332 -6 20 C-6.33 20 -6.66 20 -7 20 C-6.47493172 14.78254934 -5.2201441 10.77348889 -2.9375 6.0625 C-2.38964844 4.91910156 -1.84179688 3.77570313 -1.27734375 2.59765625 C-0.85582031 1.74042969 -0.43429688 0.88320313 0 0 Z " fill="#1933A9" transform="translate(172,303)"/>
<path d="M0 0 C2.475 0.99 2.475 0.99 5 2 C5 3.98 5 5.96 5 8 C5.66 8 6.32 8 7 8 C8.66670026 11.52948291 9.13583456 13.28272326 8 17 C6.66161267 14.54429825 5.32913768 12.08570084 4 9.625 C3.6184375 8.92632812 3.236875 8.22765625 2.84375 7.5078125 C0 2.2265625 0 2.2265625 0 0 Z " fill="#CEDCFA" transform="translate(225,94)"/>
<path d="M0 0 C1.12025107 3.33027019 0.89423549 5.36541892 -0.1875 8.6875 C-0.42855469 9.47511719 -0.66960937 10.26273437 -0.91796875 11.07421875 C-2 13 -2 13 -4.11328125 13.76953125 C-4.73589844 13.84558594 -5.35851562 13.92164063 -6 14 C-4.50829734 9.0276578 -2.39542583 4.58154261 0 0 Z " fill="#2844B8" transform="translate(105,318)"/>
<path d="M0 0 C2.53078176 3.13334885 4.51376532 6.24530187 6 10 C5.1875 12.375 5.1875 12.375 4 14 C2 11 2 11 2 8 C1.34 8 0.68 8 0 8 C0 5.36 0 2.72 0 0 Z " fill="#1C3CB5" transform="translate(343,24)"/>
<path d="M0 0 C1.47546199 3.83620117 0.54503604 6.2919135 -1 10 C-2.5 12.375 -2.5 12.375 -4 14 C-4.66 14 -5.32 14 -6 14 C-4.45941767 8.98491285 -2.97068161 4.3852919 0 0 Z " fill="#2241B0" transform="translate(45,440)"/>
<path d="M0 0 C0.33 0 0.66 0 1 0 C1 2.31 1 4.62 1 7 C0.34 7 -0.32 7 -1 7 C-1 7.66 -1 8.32 -1 9 C-1.66 9 -2.32 9 -3 9 C-3 10.32 -3 11.64 -3 13 C-3.99 13.33 -4.98 13.66 -6 14 C-2.99633316 4.22210581 -2.99633316 4.22210581 0 0 Z " fill="#3450B9" transform="translate(278,309)"/>
<path d="M0 0 C3.01233126 1.50616563 3.72067519 3.85747285 5.25 6.8125 C5.81203125 7.87082031 6.3740625 8.92914063 6.953125 10.01953125 C8 13 8 13 7.171875 15.38671875 C6.78515625 15.91910156 6.3984375 16.45148438 6 17 C5.566875 15.783125 5.13375 14.56625 4.6875 13.3125 C3.72583625 10.71600788 2.77197483 8.62840342 1.3125 6.25 C0 4 0 4 0 0 Z " fill="#2B45B3" transform="translate(475,292)"/>
<path d="M0 0 C0.33 0.66 0.66 1.32 1 2 C0.67 2.66 0.34 3.32 0 4 C-0.99 4 -1.98 4 -3 4 C-3.12375 4.61875 -3.2475 5.2375 -3.375 5.875 C-4 8 -4 8 -6 10 C-5.01 10.66 -4.02 11.32 -3 12 C-4.98 12 -6.96 12 -9 12 C-6.64168902 7.1019695 -4.64783954 3.04513625 0 0 Z " fill="#1937B9" transform="translate(160,132)"/>
<path d="M0 0 C0.33 0 0.66 0 1 0 C1.28999491 4.92991345 1.19703098 8.09251769 -2 12 C-2.99 12 -3.98 12 -5 12 C-3.68938409 7.76570244 -2.05643741 3.92592596 0 0 Z " fill="#2B46B6" transform="translate(259,347)"/>
<path d="M0 0 C0.99 0.33 1.98 0.66 3 1 C2.21447823 2.96080624 1.42137877 4.91857816 0.625 6.875 C0.18414062 7.96554687 -0.25671875 9.05609375 -0.7109375 10.1796875 C-2 13 -2 13 -4 15 C-4 13.02 -4 11.04 -4 9 C-3.34 9 -2.68 9 -2 9 C-2 7.68 -2 6.36 -2 5 C-1.34 5 -0.68 5 0 5 C0 3.35 0 1.7 0 0 Z " fill="#1E3BB3" transform="translate(245,290)"/>
<path d="M0 0 C0.66 0.33 1.32 0.66 2 1 C-0.64 6.28 -3.28 11.56 -6 17 C-6.33 17 -6.66 17 -7 17 C-7 15.35 -7 13.7 -7 12 C-6.34 12 -5.68 12 -5 12 C-4.7834375 10.576875 -4.7834375 10.576875 -4.5625 9.125 C-4 6 -4 6 -3 4 C-2.34 4 -1.68 4 -1 4 C-0.67 2.68 -0.34 1.36 0 0 Z " fill="#1F3CAC" transform="translate(158,470)"/>
<path d="M0 0 C1.37095624 3.69037278 0.60010967 5.70883835 -0.9375 9.25 C-1.31777344 10.14203125 -1.69804688 11.0340625 -2.08984375 11.953125 C-2.39019531 12.62859375 -2.69054687 13.3040625 -3 14 C-3.99 14 -4.98 14 -6 14 C-4.50829734 9.0276578 -2.39542583 4.58154261 0 0 Z " fill="#DBEAFC" transform="translate(78,407)"/>
<path d="M0 0 C0.66 0 1.32 0 2 0 C0.1668733 5.99932374 -2.07321751 11.44920563 -5 17 C-6.25541557 13.23375329 -5.37061958 11.62811066 -4 8 C-3.34 8 -2.68 8 -2 8 C-2 6.35 -2 4.7 -2 3 C-1.34 3 -0.68 3 0 3 C0 2.01 0 1.02 0 0 Z " fill="#D1E0FB" transform="translate(102,320)"/>
<path d="M0 0 C2.29648357 2.89585905 4.04347557 5.8172031 5.6875 9.125 C6.12449219 9.99382812 6.56148438 10.86265625 7.01171875 11.7578125 C8 14 8 14 8 16 C5 15 5 15 3.8671875 12.890625 C3.53976562 12.01921875 3.21234375 11.1478125 2.875 10.25 C2.54242188 9.38890625 2.20984375 8.5278125 1.8671875 7.640625 C1.03382723 5.10300543 0.46319234 2.62790754 0 0 Z " fill="#223EA8" transform="translate(496,334)"/>
<path d="M0 0 C0.99 0.33 1.98 0.66 3 1 C0.69 5.62 -1.62 10.24 -4 15 C-5.04449911 11.86650268 -4.93423645 11.01031744 -4 8 C-3.34 8 -2.68 8 -2 8 C-1.7834375 6.576875 -1.7834375 6.576875 -1.5625 5.125 C-1 2 -1 2 0 0 Z " fill="#DDE8FE" transform="translate(121,281)"/>
<path d="M0 0 C0.33 0 0.66 0 1 0 C1.042721 1.66611905 1.04063832 3.33382885 1 5 C0.67 5.33 0.34 5.66 0 6 C0 6.99 0 7.98 0 9 C-0.99 10.485 -0.99 10.485 -2 12 C-2.99 11.67 -3.98 11.34 -5 11 C-3.55049545 7.2089881 -1.84827434 3.6125362 0 0 Z " fill="#203DB3" transform="translate(235,176)"/>
<path d="M0 0 C4.90752936 2.45376468 5.13654211 4.00254474 7 9 C7.391875 9.969375 7.78375 10.93875 8.1875 11.9375 C8.455625 12.618125 8.72375 13.29875 9 14 C8.01 14.495 8.01 14.495 7 15 C4.69 10.05 2.38 5.1 0 0 Z " fill="#DCEBFD" transform="translate(234,112)"/>
<path d="M0 0 C0.66 0.99 1.32 1.98 2 3 C-1.85421412 11.6309795 -1.85421412 11.6309795 -6 14 C-4.50829734 9.0276578 -2.39542583 4.58154261 0 0 Z " fill="#D7E4F9" transform="translate(149,263)"/>
<path d="M0 0 C3.05001831 3.66002197 7 9.07851471 7 14 C6.01 14 5.02 14 4 14 C3.87625 13.195625 3.7525 12.39125 3.625 11.5625 C3.315625 10.2940625 3.315625 10.2940625 3 9 C2.34 8.67 1.68 8.34 1 8 C0.40644386 5.35139573 0.25790731 2.70802678 0 0 Z " fill="#C8D7F7" transform="translate(334,247)"/>
<path d="M0 0 C1 3 1 3 -0.43359375 6.13671875 C-1.09135973 7.3260128 -1.75977815 8.50946371 -2.4375 9.6875 C-2.77587891 10.29400391 -3.11425781 10.90050781 -3.46289062 11.52539062 C-4.29957915 13.0220025 -5.14862831 14.51169189 -6 16 C-6.6796875 14.35546875 -6.6796875 14.35546875 -7 12 C-5.8203125 9.23828125 -5.8203125 9.23828125 -4.125 6.3125 C-3.57070312 5.33925781 -3.01640625 4.36601562 -2.4453125 3.36328125 C-1 1 -1 1 0 0 Z " fill="#DEEBFC" transform="translate(95,457)"/>
<path d="M0 0 C0.66 0 1.32 0 2 0 C0.36041242 5.23272633 -1.38952035 10.15196636 -4 15 C-4.98120464 11.94736336 -4.98120464 10.05263664 -4 7 C-3.34 7 -2.68 7 -2 7 C-1.34 4.69 -0.68 2.38 0 0 Z " fill="#2944AD" transform="translate(51,457)"/>
<path d="M0 0 C0.33 0 0.66 0 1 0 C1 1.65 1 3.3 1 5 C0.34 5 -0.32 5 -1 5 C-1.12375 5.556875 -1.2475 6.11375 -1.375 6.6875 C-2.05976855 9.22114364 -2.99133763 11.57921032 -4 14 C-4.99 14 -5.98 14 -7 14 C-4.69 9.38 -2.38 4.76 0 0 Z " fill="#1D3AAB" transform="translate(292,281)"/>
<path d="M0 0 C0 3.70411834 -0.75301769 5.078923 -3 8 C-6.1875 9.3125 -6.1875 9.3125 -9 10 C-8.06409496 8.8944811 -7.12620142 7.79064547 -6.1875 6.6875 C-5.66542969 6.07261719 -5.14335937 5.45773438 -4.60546875 4.82421875 C-3.12827531 3.14575321 -1.59960869 1.56117966 0 0 Z " fill="#0F2EA9" transform="translate(170,122)"/>
<path d="M0 0 C1.46726798 3.81489674 0.43336419 6.29011622 -1 10 C-1.66 10 -2.32 10 -3 10 C-3 10.66 -3 11.32 -3 12 C-3.66 12 -4.32 12 -5 12 C-3.68938409 7.76570244 -2.05643741 3.92592596 0 0 Z " fill="#2F4CB5" transform="translate(135,378)"/>
<path d="M0 0 C0.33 0 0.66 0 1 0 C1.1953125 6.0546875 1.1953125 6.0546875 1 8 C0.34 8.66 -0.32 9.32 -1 10 C-1.99 10 -2.98 10 -4 10 C-2.8905928 6.51329166 -1.73662334 3.22515763 0 0 Z " fill="#1D3CB3" transform="translate(161,205)"/>
<path d="M0 0 C1.37095624 3.69037278 0.60010967 5.70883835 -0.9375 9.25 C-1.31777344 10.14203125 -1.69804687 11.0340625 -2.08984375 11.953125 C-2.54037109 12.96632812 -2.54037109 12.96632812 -3 14 C-3.66 14 -4.32 14 -5 14 C-5 14.66 -5 15.32 -5 16 C-5.66 16 -6.32 16 -7 16 C-5.56835889 12.34061828 -4.01065704 8.76011932 -2.375 5.1875 C-1.92898437 4.21167969 -1.48296875 3.23585937 -1.0234375 2.23046875 C-0.51683594 1.12638672 -0.51683594 1.12638672 0 0 Z " fill="#2841B0" transform="translate(226,194)"/>
<path d="M0 0 C1.98 0.66 3.96 1.32 6 2 C6 2.66 6 3.32 6 4 C6.99 4.33 7.98 4.66 9 5 C8.67 6.32 8.34 7.64 8 9 C6.66368764 7.6905332 5.33102075 6.37734515 4 5.0625 C3.2575 4.33160156 2.515 3.60070312 1.75 2.84765625 C0 1 0 1 0 0 Z " fill="#1E3BB0" transform="translate(215,145)"/>
<path d="M0 0 C3.17218843 3.62535821 4.42902597 7.51150278 6 12 C5.01 12.495 5.01 12.495 4 13 C3.13083113 11.59248779 2.28014851 10.1735479 1.4375 8.75 C0.72400391 7.56664062 0.72400391 7.56664062 -0.00390625 6.359375 C-1.13022151 3.69155375 -1.0169313 2.65498232 0 0 Z " fill="#2643B6" transform="translate(274,121)"/>
<path d="M0 0 C0.66 0 1.32 0 2 0 C5.52511192 4.4063899 6.10641413 9.58592088 7 15 C4.80865309 12.24982823 3.21822218 9.59577342 1.8125 6.375 C1.46832031 5.59898438 1.12414062 4.82296875 0.76953125 4.0234375 C0 2 0 2 0 0 Z " fill="#2640AF" transform="translate(252,79)"/>
<path d="M0 0 C0.66 0.99 1.32 1.98 2 3 C1.1015625 5.69921875 1.1015625 5.69921875 -0.375 8.6875 C-0.85710937 9.68136719 -1.33921875 10.67523438 -1.8359375 11.69921875 C-2.22007812 12.45847656 -2.60421875 13.21773438 -3 14 C-3.33 14 -3.66 14 -4 14 C-4 12.02 -4 10.04 -4 8 C-3.34 8 -2.68 8 -2 8 C-1.7834375 7.13375 -1.7834375 7.13375 -1.5625 6.25 C-1.04166667 4.16666667 -0.52083333 2.08333333 0 0 Z " fill="#203CB4" transform="translate(201,380)"/>
<path d="M0 0 C0.66 0 1.32 0 2 0 C0.85814266 4.47959418 -0.43015167 8.14522751 -3 12 C-3.66 11.01 -4.32 10.02 -5 9 C-4.67 8.34 -4.34 7.68 -4 7 C-3.34 7 -2.68 7 -2 7 C-1.855625 6.401875 -1.71125 5.80375 -1.5625 5.1875 C-1.1127561 3.43849596 -0.57107659 1.71322977 0 0 Z " fill="#D4E2FA" transform="translate(266,329)"/>
<path d="M0 0 C0.98052284 2.64741166 1.05565835 3.82446211 0.1875 6.5625 C-1 9 -1 9 -3 12 C-3.66 12 -4.32 12 -5 12 C-3.68938409 7.76570244 -2.05643741 3.92592596 0 0 Z " fill="#2F4AB6" transform="translate(111,306)"/>
<path d="M0 0 C0.33 0 0.66 0 1 0 C1.25 6.625 1.25 6.625 -1 10 C-1.99 10 -2.98 10 -4 10 C-2.8905928 6.51329166 -1.73662334 3.22515763 0 0 Z " fill="#2841B2" transform="translate(214,218)"/>
<path d="M0 0 C2.74792483 3.40219265 6 7.48464588 6 12 C5.34 12 4.68 12 4 12 C3.67 12.99 3.34 13.98 3 15 C2 10 1 5 0 0 Z " fill="#2340AF" transform="translate(425,190)"/>
<path d="M0 0 C0 3.48961209 -0.90379374 5.11480295 -2.5 8.1875 C-2.9640625 9.08855469 -3.428125 9.98960937 -3.90625 10.91796875 C-4.2671875 11.60503906 -4.628125 12.29210937 -5 13 C-5.93423645 9.98968256 -6.04449911 9.13349732 -5 6 C-4.34 5.67 -3.68 5.34 -3 5 C-2.835 4.34 -2.67 3.68 -2.5 3 C-2.335 2.34 -2.17 1.68 -2 1 C-1.34 0.67 -0.68 0.34 0 0 Z " fill="#C2D0F7" transform="translate(225,195)"/>
<path d="M0 0 C0.66 0 1.32 0 2 0 C4.74219867 3.34880626 6.86153781 6.67076296 7.3125 11 C7.209375 11.66 7.10625 12.32 7 13 C3.67006966 9.17058011 1.94675475 4.62477778 0 0 Z " fill="#243EA9" transform="translate(425,431)"/>
<path d="M0 0 C0.66 0.33 1.32 0.66 2 1 C0.02 4.96 -1.96 8.92 -4 13 C-5.20545511 9.38363467 -4.7015245 8.7128829 -3.125 5.375 C-2.75632813 4.57835937 -2.38765625 3.78171875 -2.0078125 2.9609375 C-1 1 -1 1 0 0 Z " fill="#D2E2FC" transform="translate(196,252)"/>
<path d="M0 0 C2.52394612 3.12488567 4.39701907 6.31314387 6 10 C5.67 10.66 5.34 11.32 5 12 C1.61053312 9.74035542 1.14663284 8.79270862 0 5 C-0.125 2.1875 -0.125 2.1875 0 0 Z " fill="#CFDCF5" transform="translate(328,235)"/>
<path d="M0 0 C0.66 0.33 1.32 0.66 2 1 C0.35 4.3 -1.3 7.6 -3 11 C-3.33 11 -3.66 11 -4 11 C-4.25 5.375 -4.25 5.375 -2 2 C-1.34 2 -0.68 2 0 2 C0 1.34 0 0.68 0 0 Z " fill="#1E3BAB" transform="translate(164,458)"/>
<path d="M0 0 C0.33 0 0.66 0 1 0 C1 2.31 1 4.62 1 7 C0.01 7.33 -0.98 7.66 -2 8 C-2 8.66 -2 9.32 -2 10 C-2.66 10 -3.32 10 -4 10 C-2.8905928 6.51329166 -1.73662334 3.22515763 0 0 Z " fill="#2743B6" transform="translate(109,431)"/>
<path d="M0 0 C0.66 0 1.32 0 2 0 C0.68938409 4.23429756 -0.94356259 8.07407404 -3 12 C-4.21386936 8.35839192 -3.6674695 7.66834531 -2.0625 4.3125 C-1.49208984 3.10013672 -1.49208984 3.10013672 -0.91015625 1.86328125 C-0.60980469 1.24839844 -0.30945313 0.63351562 0 0 Z " fill="#1732A7" transform="translate(190,404)"/>
<path d="M0 0 C-1.875 5.75 -1.875 5.75 -3 8 C-3.66 8 -4.32 8 -5 8 C-5.33 8.66 -5.66 9.32 -6 10 C-5.38909774 3.52443609 -5.38909774 3.52443609 -3.5625 1.0625 C-2 0 -2 0 0 0 Z " fill="#1230B4" transform="translate(83,396)"/>
<path d="M0 0 C0.99 0.33 1.98 0.66 3 1 C1.35 4.3 -0.3 7.6 -2 11 C-2.33 11 -2.66 11 -3 11 C-3.39253254 6.55129785 -2.15305957 3.85756507 0 0 Z " fill="#D0E1F7" transform="translate(165,313)"/>
<path d="M0 0 C3.55007718 3.9050849 4.81819916 6.97734643 6 12 C5.01 12 4.02 12 3 12 C1.57499941 8.00999834 0.59924224 4.19469571 0 0 Z " fill="#2B46B4" transform="translate(265,176)"/>
<path d="M0 0 C0.33 0 0.66 0 1 0 C1 2.31 1 4.62 1 7 C0.01 7.33 -0.98 7.66 -2 8 C-2 8.66 -2 9.32 -2 10 C-2.66 10 -3.32 10 -4 10 C-2.8905928 6.51329166 -1.73662334 3.22515763 0 0 Z " fill="#C5D1F6" transform="translate(86,390)"/>
<path d="M0 0 C3.375 4.5 3.375 4.5 4 8 C3.01 8 2.02 8 1 8 C0.67 8.66 0.34 9.32 0 10 C0 6.7 0 3.4 0 0 Z " fill="#1A38B6" transform="translate(492,326)"/>
<path d="M0 0 C0.66 0 1.32 0 2 0 C3.06775224 1.96466413 4.06553465 3.96855359 5 6 C4.67 6.66 4.34 7.32 4 8 C3.34 8 2.68 8 2 8 C0.23537317 4.91190305 0 3.76687864 0 0 Z " fill="#203EB0" transform="translate(539,423)"/>
<path d="M0 0 C0.33 1.32 0.66 2.64 1 4 C0.0409375 4.37125 0.0409375 4.37125 -0.9375 4.75 C-3.18741541 5.81562433 -3.18741541 5.81562433 -3.75 8.125 C-3.8325 8.74375 -3.915 9.3625 -4 10 C-4.66 9.67 -5.32 9.34 -6 9 C-4.68 6.69 -3.36 4.38 -2 2 C-1.34 2 -0.68 2 0 2 C0 1.34 0 0.68 0 0 Z " fill="#1634AD" transform="translate(123,406)"/>
<path d="M0 0 C0.66 0 1.32 0 2 0 C0.84414715 3.91211733 -0.35534962 6.8745041 -3 10 C-3.33 8.68 -3.66 7.36 -4 6 C-3.34 6 -2.68 6 -2 6 C-1.7834375 5.071875 -1.7834375 5.071875 -1.5625 4.125 C-1 2 -1 2 0 0 Z " fill="#E1EFFE" transform="translate(135,374)"/>
<path d="M0 0 C0.66 0.99 1.32 1.98 2 3 C1.3203125 5.26171875 1.3203125 5.26171875 0.125 7.6875 C-0.45894531 8.89986328 -0.45894531 8.89986328 -1.0546875 10.13671875 C-1.52261719 11.05904297 -1.52261719 11.05904297 -2 12 C-3.15957207 8.52128379 -2.77456651 7.65780355 -1.5625 4.3125 C-1.13130859 3.10013672 -1.13130859 3.10013672 -0.69140625 1.86328125 C-0.46324219 1.24839844 -0.23507813 0.63351562 0 0 Z " fill="#2540AF" transform="translate(217,348)"/>
<path d="M0 0 C0.99 0 1.98 0 3 0 C4.75 2.25 4.75 2.25 6 5 C5.6875 7.3125 5.6875 7.3125 5 9 C2.67527795 6.14693203 1.2491742 3.45925163 0 0 Z " fill="#D9E7FB" transform="translate(449,238)"/>
<path d="M0 0 C0.66 0 1.32 0 2 0 C0.68938409 4.23429756 -0.94356259 8.07407404 -3 12 C-4.21386936 8.35839192 -3.6674695 7.66834531 -2.0625 4.3125 C-1.49208984 3.10013672 -1.49208984 3.10013672 -0.91015625 1.86328125 C-0.60980469 1.24839844 -0.30945313 0.63351563 0 0 Z " fill="#E5F0FE" transform="translate(212,218)"/>
<path d="M0 0 C0.66 0 1.32 0 2 0 C1.55090939 1.48199902 1.09043436 2.96055236 0.625 4.4375 C0.36976563 5.26121094 0.11453125 6.08492187 -0.1484375 6.93359375 C-1 9 -1 9 -3 10 C-3 8.02 -3 6.04 -3 4 C-2.01 3.67 -1.02 3.34 0 3 C0 2.01 0 1.02 0 0 Z " fill="#2643B3" transform="translate(178,200)"/>
<path d="M0 0 C2.64465038 3.1254959 3.84414715 6.08788267 5 10 C4.01 10 3.02 10 2 10 C0.68373308 6.38026598 0 3.90432869 0 0 Z " fill="#4059C0" transform="translate(411,161)"/>
<path d="M0 0 C2.64465038 3.1254959 3.84414715 6.08788267 5 10 C4.01 10 3.02 10 2 10 C0.68373308 6.38026598 0 3.90432869 0 0 Z " fill="#2D49B6" transform="translate(395,129)"/>
<path d="M0 0 C2.28459758 2.28459758 2.97129748 4.12537344 4.125 7.125 C4.47820312 8.03507812 4.83140625 8.94515625 5.1953125 9.8828125 C5.46085937 10.58148438 5.72640625 11.28015625 6 12 C2.15625 10.359375 2.15625 10.359375 0.75 7.125 C0 4 0 4 0 0 Z " fill="#314AB5" transform="translate(371,80)"/>
<path d="M0 0 C2.64465038 3.1254959 3.84414715 6.08788267 5 10 C4.01 10 3.02 10 2 10 C0.68373308 6.38026598 0 3.90432869 0 0 Z " fill="#3D55BC" transform="translate(366,70)"/>
<path d="M0 0 C0.66 0 1.32 0 2 0 C1.67 1.32 1.34 2.64 1 4 C0.01 4 -0.98 4 -2 4 C-2.33 5.65 -2.66 7.3 -3 9 C-3.93423645 5.98968256 -4.04449911 5.13349732 -3 2 C-2.01 2 -1.02 2 0 2 C0 1.34 0 0.68 0 0 Z " fill="#0C30B6" transform="translate(53,453)"/>
<path d="M0 0 C0.66 0 1.32 0 2 0 C0.84414715 3.91211733 -0.35534962 6.8745041 -3 10 C-3 8.02 -3 6.04 -3 4 C-2.01 3.67 -1.02 3.34 0 3 C0 2.01 0 1.02 0 0 Z " fill="#1634B3" transform="translate(175,434)"/>
<path d="M0 0 C0.66 0 1.32 0 2 0 C1.33989524 2.84550012 0.48275034 5.52325999 -0.5625 8.25 C-0.83191406 8.95640625 -1.10132812 9.6628125 -1.37890625 10.390625 C-1.68634766 11.18726563 -1.68634766 11.18726563 -2 12 C-2.33 12 -2.66 12 -3 12 C-3.34833144 7.12335991 -2.41685712 4.22949995 0 0 Z " fill="#DAE6FB" transform="translate(85,354)"/>
<path d="M0 0 C0.66 0.33 1.32 0.66 2 1 C0.02 5.455 0.02 5.455 -2 10 C-3.19156292 5.23374833 -2.3415946 4.12120649 0 0 Z " fill="#304BB6" transform="translate(108,342)"/>
<path d="M0 0 C0.33 0 0.66 0 1 0 C1.3636198 4.24223102 0.5393228 6.58168085 -2 10 C-2.66 10 -3.32 10 -4 10 C-2.8905928 6.51329166 -1.73662334 3.22515763 0 0 Z " fill="#CFDEFA" transform="translate(233,321)"/>
<path d="M0 0 C0.66 0 1.32 0 2 0 C0.84414715 3.91211733 -0.35534962 6.8745041 -3 10 C-4 7 -4 7 -3.22265625 5.17578125 C-2.1484375 3.45052083 -1.07421875 1.72526042 0 0 Z " fill="#DFEAFE" transform="translate(107,310)"/>
<path d="M0 0 C0.66 0.33 1.32 0.66 2 1 C0.80100302 4.0831351 -0.47700477 7.06279492 -2 10 C-2.66 10 -3.32 10 -4 10 C-2.8905928 6.51329166 -1.73662334 3.22515763 0 0 Z " fill="#CBD5F5" transform="translate(173,214)"/>
<path d="M0 0 C1.32 1.32 2.64 2.64 4 4 C3.01 5.98 2.02 7.96 1 10 C-0.04005702 6.61981469 -0.08004482 3.5219721 0 0 Z " fill="#D4E4FB" transform="translate(235,166)"/>
<path d="M0 0 C1.9375 0.5 1.9375 0.5 4 2 C4.68790422 4.69658452 4.81946464 7.2017019 5 10 C2.35534962 6.8745041 1.15585285 3.91211733 0 0 Z " fill="#D1DEF9" transform="translate(399,136)"/>
<path d="M0 0 C1.32 0.33 2.64 0.66 4 1 C1.36 2.98 -1.28 4.96 -4 7 C-2.73033708 1.92134831 -2.73033708 1.92134831 0 0 Z " fill="#CBD7F7" transform="translate(159,129)"/>
<path d="M0 0 C0.99 0.66 1.98 1.32 3 2 C0.69 3.65 -1.62 5.3 -4 7 C-4.66 6.67 -5.32 6.34 -6 6 C-4.02 4.02 -2.04 2.04 0 0 Z " fill="#1631B1" transform="translate(196,97)"/>
<path d="M0 0 C2.15377564 2.62198774 3.40072174 4.64404172 4 8 C2.35 7.67 0.7 7.34 -1 7 C-0.67 4.69 -0.34 2.38 0 0 Z " fill="#324CBC" transform="translate(219,82)"/>
<path d="M0 0 C1.64826111 2.96687001 2.44271087 5.65626525 3 9 C3.66 9 4.32 9 5 9 C4.67 9.99 4.34 10.98 4 12 C0.67617413 7.66457495 -0.12018668 5.52858726 0 0 Z " fill="#1837AF" transform="translate(248,67)"/>
<path d="M0 0 C0.66 1.32 1.32 2.64 2 4 C1.525625 4.433125 1.05125 4.86625 0.5625 5.3125 C-1.23686957 7.02309613 -1.23686957 7.02309613 -2 10 C-2.66 10 -3.32 10 -4 10 C-2.66666667 6.66666667 -1.33333333 3.33333333 0 0 Z " fill="#2B47B2" transform="translate(101,447)"/>
<path d="M0 0 C0.66 0 1.32 0 2 0 C0.84414715 3.91211733 -0.35534962 6.8745041 -3 10 C-2.67 7.69 -2.34 5.38 -2 3 C-1.34 3 -0.68 3 0 3 C0 2.01 0 1.02 0 0 Z " fill="#1D38AE" transform="translate(98,362)"/>
<path d="M0 0 C0.66 1.32 1.32 2.64 2 4 C0.625 6 0.625 6 -1 8 C-1.66 8 -2.32 8 -3 8 C-1.125 2.25 -1.125 2.25 0 0 Z " fill="#DAE6FB" transform="translate(115,332)"/>
<path d="M0 0 C0.66 0.33 1.32 0.66 2 1 C0.25 6.75 0.25 6.75 -2 9 C-3 6 -3 6 -1.5625 2.8125 C-1.046875 1.884375 -0.53125 0.95625 0 0 Z " fill="#1E3BB3" transform="translate(125,278)"/>
<path d="M0 0 C0.66 0 1.32 0 2 0 C0.84414715 3.91211733 -0.35534962 6.8745041 -3 10 C-4 7 -4 7 -3.0625 4.8125 C-2.711875 4.214375 -2.36125 3.61625 -2 3 C-1.34 3 -0.68 3 0 3 C0 2.01 0 1.02 0 0 Z " fill="#D8E7FC" transform="translate(185,273)"/>
<path d="M0 0 C0.98726527 2.66561622 1.0275526 3.90126985 0.25 6.6875 C-1 9 -1 9 -4 10 C-2.8905928 6.51329166 -1.73662334 3.22515763 0 0 Z " fill="#4962C0" transform="translate(130,267)"/>
<path d="M0 0 C0.33 0 0.66 0 1 0 C0.56179109 4.55737263 0.14958831 7.57653445 -3 11 C-2.25 3.375 -2.25 3.375 0 0 Z " fill="#1C3BAE" transform="translate(147,262)"/>
<path d="M0 0 C2.32472205 2.85306797 3.7508258 5.54074837 5 9 C1.125 7.125 1.125 7.125 0 6 C-0.04080783 4.00041636 -0.04254356 1.99954746 0 0 Z " fill="#1C38AC" transform="translate(445,231)"/>
<path d="M0 0 C4.5 2.25 4.5 2.25 6 6 C5.01 7.485 5.01 7.485 4 9 C2.68 6.03 1.36 3.06 0 0 Z " fill="#E0EBFE" transform="translate(423,185)"/>
<path d="M0 0 C2.11180592 2.57089417 3.66306057 4.63060567 4 8 C3.34 8.66 2.68 9.32 2 10 C0.68373308 6.38026598 0 3.90432869 0 0 Z " fill="#2743B9" transform="translate(242,129)"/>
<path d="M0 0 C2.11180592 2.57089417 3.66306057 4.63060567 4 8 C3.34 8.66 2.68 9.32 2 10 C2 8.68 2 7.36 2 6 C1.01 6 0.02 6 -1 6 C-0.67 4.02 -0.34 2.04 0 0 Z " fill="#2340B5" transform="translate(388,115)"/>
<path d="M0 0 C0.99 0.33 1.98 0.66 3 1 C3.6875 3.0625 3.6875 3.0625 4 5 C4.66 5 5.32 5 6 5 C5.67 6.32 5.34 7.64 5 9 C2.67527795 6.14693203 1.2491742 3.45925163 0 0 Z " fill="#2741AE" transform="translate(259,95)"/>
<path d="M0 0 C1.65 0 3.3 0 5 0 C4.34 1.32 3.68 2.64 3 4 C1.68 4 0.36 4 -1 4 C-0.67 2.68 -0.34 1.36 0 0 Z " fill="#1C3EBE" transform="translate(87,475)"/>
<path d="M0 0 C0.33 0 0.66 0 1 0 C1.125 5.75 1.125 5.75 0 8 C-0.99 8 -1.98 8 -3 8 C-1.125 2.25 -1.125 2.25 0 0 Z " fill="#DBE8FD" transform="translate(163,463)"/>
<path d="M0 0 C0.33 0 0.66 0 1 0 C1 2.31 1 4.62 1 7 C-0.32 7.33 -1.64 7.66 -3 8 C-1.125 2.25 -1.125 2.25 0 0 Z " fill="#CBD7F7" transform="translate(183,422)"/>
<path d="M0 0 C0.66 0 1.32 0 2 0 C0.25 5.75 0.25 5.75 -2 8 C-3 5 -3 5 -1.6875 2.3125 C-1.130625 1.549375 -0.57375 0.78625 0 0 Z " fill="#E6F0FE" transform="translate(62,401)"/>
<path d="M0 0 C0 3.69418201 -1.28179295 5.77836178 -3 9 C-3.33 9 -3.66 9 -4 9 C-4 7.02 -4 5.04 -4 3 C-3.34 3 -2.68 3 -2 3 C-2 2.34 -2 1.68 -2 1 C-1.34 0.67 -0.68 0.34 0 0 Z " fill="#2542B0" transform="translate(196,395)"/>
<path d="M0 0 C0.6875 1.625 0.6875 1.625 1 4 C-0.4375 7.25 -0.4375 7.25 -2 10 C-2.66 10 -3.32 10 -4 10 C-2.8905928 6.51329166 -1.73662334 3.22515763 0 0 Z " fill="#C8D8F7" transform="translate(99,364)"/>
<path d="M0 0 C0.33 0 0.66 0 1 0 C1 1.65 1 3.3 1 5 C2.32 4.67 3.64 4.34 5 4 C5.33 5.32 5.66 6.64 6 8 C5.01 8 4.02 8 3 8 C3 7.34 3 6.68 3 6 C2.01 6 1.02 6 0 6 C0 4.02 0 2.04 0 0 Z " fill="#1B3BB9" transform="translate(508,362)"/>
<path d="M0 0 C0.66 0.99 1.32 1.98 2 3 C-0.75 7.875 -0.75 7.875 -3 9 C-2.01 6.03 -1.02 3.06 0 0 Z " fill="#D3E0FA" transform="translate(110,342)"/>
<path d="M0 0 C2.99324263 1.0975223 3.84610901 1.67682892 5.25 4.625 C5.4975 5.40875 5.745 6.1925 6 7 C5.34 7.66 4.68 8.32 4 9 C0 2.25 0 2.25 0 0 Z " fill="#D3DEFB" transform="translate(465,270)"/>
<path d="M0 0 C0.66 0.33 1.32 0.66 2 1 C0.02 5.455 0.02 5.455 -2 10 C-2.33 10 -2.66 10 -3 10 C-2.25 3.375 -2.25 3.375 0 0 Z " fill="#E0ECFD" transform="translate(229,184)"/>
<path d="M0 0 C0.99 0 1.98 0 3 0 C4 3 4 3 2.5625 6.1875 C1.7890625 7.5796875 1.7890625 7.5796875 1 9 C0.34 8.67 -0.32 8.34 -1 8 C-0.649375 7.236875 -0.29875 6.47375 0.0625 5.6875 C1.32360884 2.95240621 1.32360884 2.95240621 0 0 Z " fill="#1834A9" transform="translate(237,166)"/>
<path d="M0 0 C3.0916909 2.52956528 3.90931332 5.22454612 5 9 C2 8 2 8 0.8125 6.1875 C0 4 0 4 0 0 Z " fill="#1532A6" transform="translate(256,159)"/>
<path d="M0 0 C0.66 0.33 1.32 0.66 2 1 C2 1.66 2 2.32 2 3 C4.97 3 7.94 3 11 3 C11 3.33 11 3.66 11 4 C7.37 4 3.74 4 0 4 C-0.33 3.01 -0.66 2.02 -1 1 C-0.67 0.67 -0.34 0.34 0 0 Z " fill="#E3F0FB" transform="translate(451,485)"/>
<path d="M0 0 C1.485 0.99 1.485 0.99 3 2 C3 2.99 3 3.98 3 5 C2.34 5 1.68 5 1 5 C0.34 6.32 -0.32 7.64 -1 9 C-1.125 2.25 -1.125 2.25 0 0 Z " fill="#0628B9" transform="translate(157,465)"/>
<path d="M0 0 C2.76223278 2.76223278 2.57856291 5.20706617 3 9 C2.34 8.67 1.68 8.34 1 8 C0.26924352 5.6859378 -0.40138258 3.35171131 -1 1 C-0.67 0.67 -0.34 0.34 0 0 Z " fill="#2541B5" transform="translate(442,461)"/>
<path d="M0 0 C0.66 0.33 1.32 0.66 2 1 C0.68 3.64 -0.64 6.28 -2 9 C-3.21185923 5.36442231 -2.59260392 4.36216382 -1 1 C-0.67 0.67 -0.34 0.34 0 0 Z " fill="#D9E7FC" transform="translate(99,448)"/>
<path d="M0 0 C0.99 0 1.98 0 3 0 C3.33 2.64 3.66 5.28 4 8 C1.84622436 5.37801226 0.59927826 3.35595828 0 0 Z " fill="#203DAC" transform="translate(432,444)"/>
<path d="M0 0 C0.66 0.33 1.32 0.66 2 1 C0.68 3.64 -0.64 6.28 -2 9 C-2.33 9 -2.66 9 -3 9 C-2.67 6.69 -2.34 4.38 -2 2 C-1.34 2 -0.68 2 0 2 C0 1.34 0 0.68 0 0 Z " fill="#D3E0FC" transform="translate(121,404)"/>
<path d="M0 0 C0.33 0 0.66 0 1 0 C1 1.98 1 3.96 1 6 C0.34 6 -0.32 6 -1 6 C-1.33 6.99 -1.66 7.98 -2 9 C-3 6 -3 6 -1.5625 2.8125 C-1.046875 1.884375 -0.53125 0.95625 0 0 Z " fill="#2441AD" transform="translate(144,360)"/>
<path d="M0 0 C0.66 1.32 1.32 2.64 2 4 C1.34 4 0.68 4 0 4 C-0.33 5.65 -0.66 7.3 -1 9 C-1.66 9 -2.32 9 -3 9 C-2.01 6.03 -1.02 3.06 0 0 Z " fill="#D2E1F9" transform="translate(219,349)"/>
<path d="M0 0 C0.66 0 1.32 0 2 0 C1.01 2.97 0.02 5.94 -1 9 C-1.33 9 -1.66 9 -2 9 C-2.25 3.375 -2.25 3.375 0 0 Z " fill="#2039B5" transform="translate(127,303)"/>
<path d="M0 0 C0.99 0 1.98 0 3 0 C3.66 2.31 4.32 4.62 5 7 C4.01 6.67 3.02 6.34 2 6 C0.8125 2.9375 0.8125 2.9375 0 0 Z " fill="#102FAE" transform="translate(340,257)"/>
<path d="M0 0 C0.66 0 1.32 0 2 0 C1.40138258 2.35171131 0.73075648 4.6859378 0 7 C-0.99 7.495 -0.99 7.495 -2 8 C-2 6.02 -2 4.04 -2 2 C-1.34 2 -0.68 2 0 2 C0 1.34 0 0.68 0 0 Z " fill="#2A45B3" transform="translate(275,232)"/>
<path d="M0 0 C0.99 0.33 1.98 0.66 3 1 C1.68 2.32 0.36 3.64 -1 5 C-1.99 4.67 -2.98 4.34 -4 4 C-2.68 2.68 -1.36 1.36 0 0 Z " fill="#1836AE" transform="translate(175,117)"/>
<path d="M0 0 C1.32 0.33 2.64 0.66 4 1 C4.33 2.98 4.66 4.96 5 7 C4.01 7.495 4.01 7.495 3 8 C2.01 5.36 1.02 2.72 0 0 Z " fill="#1735AE" transform="translate(264,104)"/>
</svg>
